<svg width="552" height="418" viewBox="0 0 552 418" fill="none" xmlns="http://www.w3.org/2000/svg">
<mask id="path-1-inside-1_1249_62" fill="white">
<path d="M499.801 146.436C499.387 146.412 498.97 146.399 498.55 146.398C486.676 146.385 477.04 155.999 477.026 167.873C477.012 179.747 486.627 189.384 498.501 189.397C498.921 189.398 499.338 189.384 499.752 189.361L499.713 223.472L51.4941 222.954L51.5348 187.482C63.3936 187.478 73.0119 177.871 73.0258 166.008C73.0395 154.145 63.4431 144.514 51.5841 144.483L51.6313 103.955L499.85 104.472L499.801 146.436Z"/>
</mask>
<path d="M499.801 146.436C499.387 146.412 498.97 146.399 498.55 146.398C486.676 146.385 477.04 155.999 477.026 167.873C477.012 179.747 486.627 189.384 498.501 189.397C498.921 189.398 499.338 189.384 499.752 189.361L499.713 223.472L51.4941 222.954L51.5348 187.482C63.3936 187.478 73.0119 177.871 73.0258 166.008C73.0395 154.145 63.4431 144.514 51.5841 144.483L51.6313 103.955L499.85 104.472L499.801 146.436Z" fill="#F64D50"/>
<path d="M499.801 146.436L499.217 156.419L509.789 157.038L509.801 146.448L499.801 146.436ZM498.55 146.398L498.562 136.398L498.562 136.398L498.55 146.398ZM477.026 167.873L467.026 167.861L467.026 167.862L477.026 167.873ZM498.501 189.397L498.489 199.397L498.489 199.397L498.501 189.397ZM499.752 189.361L509.752 189.372L509.764 178.782L499.191 179.377L499.752 189.361ZM499.713 223.472L499.701 233.472L509.701 233.484L509.713 223.484L499.713 223.472ZM51.4941 222.954L41.4941 222.943L41.4827 232.943L51.4826 232.954L51.4941 222.954ZM51.5348 187.482L51.5312 177.482L41.5463 177.486L41.5348 187.471L51.5348 187.482ZM73.0258 166.008L83.0258 166.02L83.0258 166.02L73.0258 166.008ZM51.5841 144.483L41.5841 144.471L41.5724 154.457L51.5576 154.483L51.5841 144.483ZM51.6313 103.955L51.6429 93.9549L41.643 93.9434L41.6313 103.943L51.6313 103.955ZM499.85 104.472L509.85 104.484L509.862 94.484L499.861 94.4725L499.85 104.472ZM499.801 146.436L500.385 136.453C499.794 136.419 499.185 136.399 498.562 136.398L498.55 146.398L498.539 156.398C498.755 156.398 498.981 156.405 499.217 156.419L499.801 146.436ZM498.55 146.398L498.562 136.398C481.165 136.378 467.046 150.465 467.026 167.861L477.026 167.873L487.026 167.885C487.033 161.534 492.188 156.391 498.539 156.398L498.55 146.398ZM477.026 167.873L467.026 167.862C467.006 185.259 481.093 199.377 498.489 199.397L498.501 189.397L498.513 179.397C492.161 179.39 487.019 174.235 487.026 167.885L477.026 167.873ZM498.501 189.397L498.489 199.397C499.131 199.398 499.742 199.377 500.313 199.345L499.752 189.361L499.191 179.377C498.934 179.391 498.711 179.398 498.512 179.397L498.501 189.397ZM499.752 189.361L489.752 189.349L489.713 223.461L499.713 223.472L509.713 223.484L509.752 189.372L499.752 189.361ZM499.713 223.472L499.724 213.472L51.5057 212.954L51.4941 222.954L51.4826 232.954L499.701 233.472L499.713 223.472ZM51.4941 222.954L61.4941 222.966L61.5348 187.494L51.5348 187.482L41.5348 187.471L41.4941 222.943L51.4941 222.954ZM51.5348 187.482L51.5384 197.482C68.9131 197.476 83.0054 183.401 83.0258 166.02L73.0258 166.008L63.0258 165.997C63.0184 172.342 57.8741 177.48 51.5312 177.482L51.5348 187.482ZM73.0258 166.008L83.0258 166.02C83.0458 148.64 68.9864 134.529 51.6106 134.483L51.5841 144.483L51.5576 154.483C57.8997 154.5 63.0331 159.651 63.0258 165.997L73.0258 166.008ZM51.5841 144.483L61.5841 144.495L61.6313 103.967L51.6313 103.955L41.6313 103.943L41.5841 144.471L51.5841 144.483ZM51.6313 103.955L51.6198 113.955L499.838 114.472L499.85 104.472L499.861 94.4725L51.6429 93.9549L51.6313 103.955ZM499.85 104.472L489.85 104.461L489.801 146.424L499.801 146.436L509.801 146.448L509.85 104.484L499.85 104.472Z" fill="#DB4447" mask="url(#path-1-inside-1_1249_62)"/>
<path d="M51.6629 134.486C69.0341 134.55 83.1364 148.643 83.1609 165.964C83.1853 183.284 69.1224 197.272 51.7511 197.208C51.6591 197.207 51.5672 197.204 51.4754 197.202L51.4696 187.248C51.5585 187.249 51.6475 187.252 51.7367 187.252C63.5933 187.296 73.1923 177.748 73.1757 165.927C73.159 154.105 63.5334 144.486 51.6768 144.442C51.6004 144.441 51.5241 144.443 51.4479 144.443L51.4432 134.487C51.5163 134.487 51.5896 134.485 51.6629 134.486Z" fill="#DB4447"/>
</svg>
