<svg width="337" height="243" viewBox="0 0 337 243" fill="none" xmlns="http://www.w3.org/2000/svg">
<rect x="50.8301" y="129.416" width="213" height="109" transform="rotate(-30 50.8301 129.416)" fill="#F64D50" stroke="#DB4447" stroke-width="10"/>
<circle cx="264.896" cy="67.9478" r="26.5" transform="rotate(-30 264.896 67.9478)" fill="white" stroke="#DB4447" stroke-width="10"/>
<circle cx="75.8965" cy="177.948" r="26.5" transform="rotate(-30 75.8965 177.948)" fill="white" stroke="#DB4447" stroke-width="10"/>
<rect y="176.586" width="63" height="76.3669" transform="rotate(-30 0 176.586)" fill="white"/>
<rect x="245.373" y="31.5" width="63" height="73.2534" transform="rotate(-30 245.373 31.5)" fill="white"/>
<path d="M117.474 131.094C116.68 131.552 115.934 131.81 115.236 131.866C114.543 131.901 113.87 131.818 113.216 131.618L113.079 130.831L114.142 132.671L111.11 134.421L101.248 117.339L104.257 115.602L109.595 124.846L109.032 123.872C109.224 123.338 109.568 122.783 110.064 122.209C110.559 121.634 111.204 121.117 111.998 120.659C112.821 120.184 113.684 119.945 114.587 119.943C115.491 119.941 116.361 120.199 117.199 120.716C118.042 121.211 118.772 121.992 119.389 123.06C120.006 124.128 120.308 125.185 120.296 126.231C120.299 127.269 120.045 128.214 119.537 129.066C119.028 129.918 118.34 130.594 117.474 131.094ZM115.328 128.926C115.775 128.668 116.12 128.315 116.362 127.868C116.618 127.412 116.745 126.915 116.743 126.377C116.741 125.84 116.594 125.319 116.302 124.813C116.01 124.308 115.637 123.927 115.181 123.671C114.725 123.415 114.239 123.291 113.725 123.299C113.216 123.285 112.738 123.407 112.291 123.665C111.901 123.89 111.57 124.168 111.299 124.498C111.034 124.805 110.845 125.145 110.733 125.517C110.627 125.867 110.601 126.238 110.654 126.631L111.992 128.947C112.348 129.165 112.704 129.315 113.06 129.399C113.422 129.459 113.795 129.455 114.18 129.387C114.556 129.305 114.938 129.151 115.328 128.926ZM128.755 124.581C127.874 125.089 126.973 125.379 126.051 125.449C125.136 125.496 124.256 125.273 123.413 124.778C122.569 124.284 121.818 123.467 121.16 122.326C120.543 121.258 120.226 120.209 120.209 119.18C120.192 118.151 120.417 117.222 120.882 116.395C121.34 115.554 121.965 114.904 122.759 114.446C123.697 113.904 124.496 113.655 125.156 113.697C125.821 113.717 126.421 113.823 126.956 114.015L127.038 114.458L126.52 112.91L129.334 111.285L134.797 120.746L131.766 122.496L130.578 120.439L131.191 120.951C131.162 120.968 131.126 121.105 131.082 121.361C131.029 121.603 130.925 121.923 130.77 122.321C130.62 122.696 130.382 123.083 130.055 123.484C129.751 123.89 129.318 124.256 128.755 124.581ZM128.196 121.613C128.557 121.404 128.852 121.166 129.082 120.899C129.305 120.617 129.465 120.312 129.565 119.985C129.657 119.643 129.69 119.268 129.666 118.859L128.328 116.542C128.029 116.291 127.702 116.124 127.346 116.041C126.982 115.944 126.608 115.929 126.223 115.996C125.831 116.05 125.44 116.189 125.05 116.414C124.617 116.664 124.279 117.013 124.038 117.461C123.802 117.885 123.688 118.355 123.697 118.87C123.705 119.385 123.855 119.895 124.147 120.4C124.438 120.905 124.816 121.293 125.281 121.564C125.745 121.835 126.231 121.977 126.74 121.991C127.263 121.997 127.748 121.871 128.196 121.613ZM141.107 117.363C140.328 117.813 139.519 118.096 138.683 118.214C137.86 118.323 137.077 118.265 136.331 118.041L136.625 115.649C137.328 115.801 137.929 115.858 138.427 115.821C138.931 115.761 139.342 115.639 139.66 115.456C139.905 115.314 140.109 115.168 140.272 115.016C140.44 114.842 140.553 114.671 140.61 114.503C140.659 114.321 140.634 114.143 140.534 113.97C140.392 113.724 140.178 113.588 139.893 113.56C139.622 113.524 139.31 113.55 138.957 113.639C138.595 113.713 138.212 113.799 137.808 113.898C136.783 114.124 135.926 114.09 135.237 113.795C134.553 113.478 134.032 113.009 133.674 112.388C133.399 111.912 133.246 111.364 133.217 110.746C133.193 110.106 133.364 109.468 133.729 108.834C134.1 108.177 134.726 107.594 135.607 107.086C136.401 106.628 137.118 106.32 137.758 106.162C138.398 106.004 139.067 105.964 139.767 106.041L139.644 108.479C139.245 108.421 138.83 108.42 138.401 108.475C137.977 108.508 137.617 108.601 137.32 108.753C137.051 108.888 136.844 109.047 136.698 109.227C136.567 109.399 136.484 109.572 136.45 109.746C136.415 109.92 136.436 110.072 136.511 110.202C136.654 110.484 136.88 110.642 137.189 110.676C137.511 110.701 137.871 110.658 138.267 110.544C138.664 110.431 139.061 110.336 139.46 110.26C140.005 110.137 140.514 110.103 140.988 110.157C141.462 110.21 141.885 110.361 142.258 110.607C142.638 110.831 142.965 111.181 143.24 111.657C143.573 112.234 143.738 112.87 143.735 113.565C143.738 114.237 143.528 114.906 143.105 115.574C142.697 116.233 142.031 116.829 141.107 117.363ZM152.409 110.924C151.254 111.591 150.147 111.941 149.089 111.975C148.045 112 147.093 111.751 146.233 111.228C145.373 110.705 144.655 109.945 144.08 108.949C143.53 107.996 143.28 106.996 143.329 105.948C143.378 104.899 143.684 103.914 144.249 102.991C144.805 102.055 145.588 101.294 146.598 100.711C147.955 99.9277 149.296 99.683 150.62 99.9769C151.951 100.248 153.175 101.052 154.293 102.389L148.282 108.977L146.661 107.719L150.949 102.847L150.484 103.491C150.152 103.182 149.755 102.978 149.293 102.879C148.838 102.757 148.315 102.867 147.723 103.208C147.275 103.467 146.941 103.804 146.72 104.221C146.504 104.614 146.415 105.06 146.453 105.558C146.496 106.034 146.668 106.531 146.968 107.051C147.309 107.643 147.705 108.078 148.155 108.357C148.597 108.622 149.063 108.747 149.555 108.732C150.047 108.718 150.524 108.577 150.986 108.31C151.318 108.119 151.602 107.878 151.839 107.587C152.089 107.288 152.312 106.958 152.507 106.595L155.149 108.072C154.811 108.652 154.396 109.2 153.904 109.715C153.427 110.221 152.928 110.624 152.409 110.924ZM163.574 104.478C162.694 104.986 161.791 105.238 160.865 105.234C159.93 105.215 159.036 104.933 158.182 104.387C157.342 103.833 156.614 103.021 155.997 101.953C155.38 100.885 155.072 99.8508 155.072 98.8502C155.071 97.8497 155.334 96.9379 155.859 96.1148C156.385 95.2918 157.124 94.6052 158.077 94.0552C158.683 93.7052 159.314 93.4657 159.971 93.3367C160.643 93.1993 161.278 93.2172 161.879 93.3902L162.429 94.3429L157.091 85.098L160.1 83.3605L169.963 100.443L166.932 102.193L165.869 100.353L166.483 100.865C166.225 101.552 165.877 102.215 165.437 102.854C164.989 103.478 164.368 104.019 163.574 104.478ZM163.095 101.348C163.5 101.115 163.824 100.86 164.069 100.584C164.32 100.285 164.502 99.968 164.617 99.6326C164.737 99.2744 164.792 98.8865 164.782 98.469L163.444 96.1524C163.146 95.9015 162.811 95.7386 162.441 95.6638C162.076 95.5662 161.688 95.5596 161.275 95.6442C160.868 95.7059 160.462 95.8535 160.058 96.0868C159.61 96.3451 159.259 96.7023 159.002 97.1582C158.752 97.5914 158.624 98.0695 158.618 98.5926C158.612 99.1156 158.755 99.6297 159.046 100.135C159.338 100.64 159.716 101.028 160.18 101.299C160.645 101.57 161.131 101.712 161.64 101.727C162.163 101.732 162.648 101.606 163.095 101.348ZM176.586 90.1529C176.027 89.1858 175.751 88.1907 175.757 87.1673C175.777 86.1357 176.074 85.1658 176.646 84.2578C177.211 83.3354 178.027 82.5658 179.095 81.9492C180.178 81.3242 181.245 81.0062 182.297 80.9953C183.341 80.97 184.293 81.219 185.153 81.7423C186.028 82.2573 186.744 82.9983 187.303 83.9654C187.861 84.9325 188.149 85.9307 188.166 86.9601C188.189 87.9668 187.933 88.923 187.397 89.8288C186.862 90.7346 186.038 91.5083 184.927 92.15C183.888 92.75 182.84 93.0854 181.784 93.1562C180.742 93.2188 179.77 93.0009 178.866 92.5025C177.963 92.0042 177.202 91.221 176.586 90.1529ZM179.651 88.4121C179.934 88.9028 180.294 89.2919 180.729 89.5794C181.156 89.8524 181.61 90.0044 182.089 90.0354C182.569 90.0663 183.025 89.9568 183.458 89.7068C183.935 89.4318 184.279 89.0788 184.493 88.6479C184.706 88.2169 184.793 87.7524 184.756 87.2544C184.71 86.7419 184.546 86.2403 184.263 85.7496C183.971 85.2444 183.619 84.8511 183.206 84.5697C182.793 84.2883 182.347 84.1322 181.868 84.1012C181.388 84.0703 180.91 84.1923 180.433 84.4673C180 84.7173 179.677 85.0578 179.464 85.4887C179.251 85.9197 179.156 86.3883 179.179 86.8947C179.202 87.4011 179.359 87.9069 179.651 88.4121ZM189.778 76.3877L190.991 77.939L190.86 77.8124C190.85 77.029 191.045 76.2818 191.442 75.571C191.832 74.8457 192.467 74.2289 193.347 73.7205C194.242 73.2039 195.14 73.0417 196.04 73.2341C196.946 73.4037 197.648 73.903 198.146 74.7318L202.233 81.8115L199.202 83.5615L195.765 77.6076C195.509 77.1974 195.202 76.9321 194.843 76.8117C194.491 76.6685 194.07 76.7386 193.579 77.022C193.117 77.2886 192.801 77.6735 192.629 78.1766C192.458 78.6797 192.428 79.2453 192.541 79.8732C192.653 80.5012 192.905 81.1543 193.297 81.8327L195.522 85.6865L192.491 87.4365L187.028 77.9752L189.778 76.3877ZM118.01 141.148L121.041 139.398L123.416 143.511L125.711 142.186L127.074 144.546L124.779 145.871L128.904 153.016L125.872 154.766L121.747 147.621L120.275 148.471L118.913 146.111L120.385 145.261L118.01 141.148ZM133.505 150.359L123.643 133.277L126.609 131.564L132.109 141.091L131.875 140.735C131.865 139.952 132.059 139.204 132.457 138.494C132.847 137.768 133.482 137.151 134.362 136.643C135.257 136.126 136.155 135.964 137.055 136.157C137.961 136.326 138.663 136.826 139.161 137.654L143.248 144.734L140.217 146.484L136.78 140.53C136.524 140.12 136.216 139.855 135.858 139.734C135.506 139.591 135.085 139.661 134.594 139.945C134.132 140.211 133.816 140.596 133.644 141.099C133.473 141.602 133.443 142.168 133.556 142.796C133.668 143.424 133.92 144.077 134.312 144.755L136.537 148.609L133.505 150.359ZM151.165 140.51C150.011 141.176 148.904 141.526 147.846 141.56C146.802 141.585 145.85 141.336 144.99 140.813C144.13 140.29 143.412 139.53 142.837 138.534C142.287 137.582 142.036 136.581 142.086 135.533C142.135 134.484 142.441 133.499 143.006 132.577C143.562 131.64 144.345 130.88 145.355 130.296C146.712 129.513 148.053 129.268 149.377 129.562C150.708 129.833 151.932 130.637 153.05 131.974L147.039 138.562L145.418 137.304L149.706 132.432L149.241 133.076C148.909 132.767 148.512 132.563 148.05 132.464C147.595 132.342 147.072 132.452 146.48 132.794C146.032 133.052 145.698 133.389 145.476 133.806C145.261 134.2 145.172 134.646 145.21 135.144C145.253 135.619 145.425 136.116 145.725 136.636C146.066 137.228 146.462 137.663 146.912 137.942C147.353 138.207 147.82 138.332 148.312 138.318C148.804 138.303 149.281 138.162 149.743 137.896C150.075 137.704 150.359 137.463 150.596 137.172C150.846 136.874 151.069 136.543 151.264 136.18L153.906 137.657C153.568 138.237 153.153 138.785 152.661 139.3C152.184 139.806 151.685 140.21 151.165 140.51ZM155.506 114.881L158.537 113.131L168.399 130.213L165.368 131.963L155.506 114.881ZM175.655 126.371C174.774 126.879 173.873 127.168 172.951 127.239C172.036 127.286 171.156 127.063 170.313 126.568C169.469 126.074 168.718 125.256 168.06 124.116C167.443 123.048 167.126 121.999 167.109 120.97C167.092 119.94 167.317 119.012 167.782 118.185C168.24 117.344 168.865 116.694 169.659 116.236C170.597 115.694 171.396 115.445 172.056 115.487C172.721 115.507 173.321 115.613 173.856 115.805L173.938 116.248L173.42 114.7L176.234 113.075L181.697 122.536L178.666 124.286L177.478 122.229L178.091 122.741C178.062 122.758 178.026 122.894 177.982 123.151C177.929 123.393 177.825 123.713 177.669 124.11C177.52 124.485 177.282 124.873 176.955 125.273C176.651 125.68 176.218 126.046 175.655 126.371ZM175.096 123.403C175.457 123.194 175.752 122.956 175.982 122.688C176.204 122.406 176.365 122.102 176.465 121.775C176.557 121.433 176.59 121.058 176.566 120.649L175.228 118.332C174.929 118.081 174.602 117.914 174.246 117.831C173.882 117.733 173.508 117.718 173.123 117.786C172.731 117.84 172.34 117.979 171.95 118.204C171.517 118.454 171.179 118.803 170.938 119.25C170.702 119.675 170.588 120.145 170.596 120.66C170.605 121.174 170.755 121.684 171.047 122.19C171.338 122.695 171.716 123.083 172.181 123.354C172.645 123.624 173.131 123.767 173.64 123.781C174.163 123.787 174.648 123.661 175.096 123.403ZM177.845 106.602L180.876 104.852L183.251 108.966L185.546 107.641L186.909 110L184.614 111.325L188.739 118.47L185.708 120.22L181.583 113.075L180.11 113.925L178.748 111.566L180.22 110.716L177.845 106.602ZM198.146 113.386C196.991 114.052 195.884 114.402 194.826 114.436C193.782 114.461 192.83 114.212 191.97 113.689C191.11 113.166 190.392 112.406 189.817 111.41C189.267 110.458 189.017 109.457 189.066 108.409C189.115 107.36 189.422 106.375 189.986 105.453C190.542 104.516 191.325 103.756 192.336 103.172C193.692 102.389 195.033 102.144 196.357 102.438C197.688 102.709 198.912 103.513 200.03 104.85L194.019 111.438L192.398 110.18L196.686 105.308L196.221 105.952C195.889 105.643 195.492 105.439 195.031 105.34C194.575 105.218 194.052 105.328 193.46 105.67C193.012 105.928 192.678 106.265 192.457 106.682C192.241 107.076 192.152 107.522 192.19 108.02C192.233 108.495 192.405 108.992 192.705 109.512C193.047 110.104 193.442 110.539 193.892 110.818C194.334 111.083 194.8 111.208 195.292 111.194C195.784 111.179 196.261 111.038 196.723 110.772C197.055 110.58 197.339 110.339 197.576 110.048C197.827 109.75 198.049 109.419 198.244 109.056L200.887 110.533C200.548 111.113 200.133 111.661 199.641 112.176C199.164 112.682 198.665 113.086 198.146 113.386ZM208.495 107.324C207.715 107.774 206.907 108.058 206.07 108.175C205.248 108.284 204.464 108.227 203.719 108.003L204.012 105.61C204.716 105.762 205.317 105.82 205.815 105.782C206.319 105.722 206.73 105.6 207.047 105.417C207.293 105.275 207.497 105.129 207.659 104.977C207.828 104.803 207.941 104.632 207.998 104.464C208.047 104.282 208.021 104.104 207.921 103.931C207.78 103.686 207.566 103.549 207.281 103.521C207.01 103.485 206.698 103.512 206.345 103.6C205.983 103.674 205.6 103.76 205.195 103.859C204.171 104.085 203.314 104.051 202.624 103.756C201.941 103.439 201.42 102.97 201.061 102.349C200.786 101.873 200.634 101.326 200.604 100.708C200.581 100.067 200.752 99.4294 201.117 98.7952C201.488 98.1382 202.114 97.5556 202.994 97.0472C203.788 96.5889 204.505 96.2808 205.145 96.1229C205.786 95.965 206.455 95.9248 207.154 96.0023L207.032 98.4402C206.633 98.382 206.218 98.3807 205.788 98.4364C205.365 98.4693 205.004 98.5619 204.707 98.7141C204.439 98.8497 204.232 99.0077 204.086 99.1882C203.955 99.3604 203.872 99.5333 203.837 99.7071C203.803 99.881 203.823 100.033 203.898 100.163C204.042 100.445 204.268 100.603 204.576 100.637C204.899 100.663 205.258 100.619 205.655 100.505C206.051 100.392 206.449 100.297 206.847 100.221C207.393 100.099 207.902 100.064 208.376 100.118C208.849 100.172 209.273 100.322 209.646 100.568C210.025 100.792 210.352 101.142 210.627 101.618C210.961 102.195 211.126 102.831 211.123 103.526C211.126 104.198 210.916 104.868 210.493 105.535C210.085 106.194 209.418 106.791 208.495 107.324ZM208.017 89.1825L211.048 87.4325L213.423 91.5461L215.718 90.2211L217.08 92.581L214.785 93.906L218.91 101.051L215.879 102.801L211.754 95.656L210.282 96.506L208.919 94.1461L210.392 93.2961L208.017 89.1825ZM141.019 175.235C140.456 175.56 139.842 175.78 139.177 175.894C138.518 175.986 137.896 175.941 137.31 175.76L136.884 174.822L140.571 181.209L137.562 182.947L129.35 168.722L131.948 167.222L133.443 168.813L132.83 168.301C133.079 167.599 133.428 166.936 133.875 166.311C134.323 165.687 134.944 165.146 135.738 164.688C136.618 164.179 137.526 163.934 138.46 163.953C139.387 163.957 140.27 164.236 141.109 164.791C141.955 165.322 142.69 166.129 143.315 167.212C143.932 168.28 144.233 169.319 144.219 170.328C144.205 171.336 143.921 172.261 143.366 173.1C142.812 173.94 142.03 174.652 141.019 175.235ZM139.038 173.203C139.529 172.92 139.914 172.553 140.193 172.104C140.486 171.645 140.643 171.151 140.664 170.619C140.69 170.065 140.558 169.536 140.266 169.03C139.958 168.496 139.576 168.101 139.12 167.845C138.67 167.566 138.188 167.43 137.673 167.439C137.164 167.424 136.679 167.551 136.217 167.817C135.813 168.051 135.485 168.317 135.235 168.616C134.99 168.892 134.807 169.209 134.687 169.567C134.573 169.902 134.52 170.279 134.531 170.696L135.868 173.013C136.159 173.249 136.479 173.42 136.829 173.526C137.178 173.632 137.542 173.663 137.92 173.618C138.305 173.55 138.677 173.412 139.038 173.203ZM153.252 168.172C152.098 168.839 150.991 169.189 149.933 169.223C148.889 169.248 147.937 168.999 147.077 168.476C146.217 167.952 145.499 167.193 144.924 166.197C144.374 165.244 144.123 164.244 144.173 163.195C144.222 162.147 144.528 161.162 145.093 160.239C145.649 159.302 146.432 158.542 147.442 157.959C148.799 157.176 150.14 156.931 151.464 157.225C152.795 157.496 154.019 158.3 155.137 159.636L149.126 166.225L147.505 164.967L151.793 160.095L151.328 160.739C150.996 160.43 150.599 160.226 150.137 160.127C149.682 160.005 149.158 160.115 148.567 160.456C148.119 160.715 147.785 161.052 147.563 161.469C147.348 161.862 147.259 162.308 147.296 162.806C147.34 163.282 147.512 163.779 147.812 164.299C148.153 164.89 148.549 165.326 148.999 165.605C149.44 165.87 149.907 165.995 150.399 165.98C150.891 165.966 151.368 165.825 151.83 165.558C152.162 165.367 152.446 165.126 152.682 164.835C152.933 164.536 153.156 164.206 153.351 163.843L155.993 165.32C155.655 165.9 155.24 166.447 154.748 166.962C154.271 167.469 153.772 167.872 153.252 168.172ZM164.418 161.725C163.538 162.234 162.635 162.486 161.708 162.482C160.774 162.463 159.88 162.181 159.026 161.635C158.186 161.08 157.458 160.269 156.841 159.201C156.224 158.133 155.916 157.099 155.915 156.098C155.915 155.097 156.178 154.186 156.703 153.363C157.229 152.54 157.968 151.853 158.921 151.303C159.527 150.953 160.158 150.714 160.815 150.585C161.486 150.447 162.122 150.465 162.722 150.638L163.272 151.591L157.935 142.346L160.944 140.608L170.807 157.691L167.776 159.441L166.713 157.6L167.326 158.112C167.069 158.8 166.721 159.463 166.281 160.102C165.833 160.726 165.212 161.267 164.418 161.725ZM163.939 158.596C164.343 158.362 164.668 158.108 164.913 157.832C165.164 157.533 165.346 157.216 165.46 156.88C165.581 156.522 165.636 156.134 165.626 155.717L164.288 153.4C163.989 153.149 163.655 152.986 163.285 152.912C162.92 152.814 162.532 152.807 162.118 152.892C161.712 152.954 161.306 153.101 160.902 153.335C160.454 153.593 160.102 153.95 159.846 154.406C159.596 154.839 159.468 155.317 159.462 155.84C159.456 156.363 159.599 156.878 159.89 157.383C160.182 157.888 160.56 158.276 161.024 158.547C161.489 158.817 161.975 158.96 162.484 158.974C163.007 158.98 163.492 158.854 163.939 158.596ZM178.059 153.85C177.178 154.359 176.277 154.648 175.356 154.718C174.44 154.766 173.56 154.542 172.717 154.048C171.873 153.553 171.122 152.736 170.464 151.596C169.847 150.527 169.53 149.479 169.513 148.449C169.496 147.42 169.721 146.492 170.186 145.665C170.644 144.823 171.269 144.174 172.063 143.715C173.001 143.174 173.8 142.924 174.46 142.967C175.126 142.986 175.726 143.092 176.26 143.284L176.342 143.727L175.824 142.179L178.638 140.554L184.101 150.015L181.07 151.765L179.882 149.709L180.495 150.221C180.467 150.237 180.43 150.374 180.386 150.63C180.333 150.873 180.229 151.192 180.074 151.59C179.924 151.965 179.686 152.352 179.359 152.753C179.055 153.159 178.622 153.525 178.059 153.85ZM177.5 150.882C177.861 150.674 178.156 150.436 178.387 150.168C178.609 149.886 178.77 149.581 178.869 149.254C178.961 148.913 178.994 148.537 178.97 148.128L177.632 145.811C177.333 145.561 177.006 145.394 176.65 145.31C176.286 145.213 175.912 145.198 175.527 145.266C175.135 145.319 174.744 145.458 174.354 145.683C173.921 145.933 173.584 146.282 173.342 146.73C173.106 147.155 172.992 147.624 173.001 148.139C173.009 148.654 173.159 149.164 173.451 149.669C173.743 150.174 174.12 150.562 174.585 150.833C175.049 151.104 175.535 151.246 176.044 151.261C176.567 151.267 177.052 151.14 177.5 150.882ZM194.867 150.15C194.016 150.642 193.236 150.958 192.527 151.097C191.833 151.228 191.201 151.266 190.63 151.211C190.059 151.156 189.54 151.09 189.072 151.013L189.648 147.91C190.155 148.021 190.704 148.089 191.295 148.113C191.909 148.144 192.577 147.951 193.299 147.534C193.775 147.259 194.165 146.918 194.47 146.512C194.796 146.111 194.991 145.681 195.053 145.222C195.129 144.755 195.03 144.283 194.755 143.806L193.555 141.728L193.976 142.207C194.028 142.831 193.86 143.505 193.47 144.231C193.072 144.942 192.383 145.58 191.401 146.147C190.55 146.639 189.631 146.88 188.645 146.872C187.665 146.842 186.741 146.576 185.875 146.075C185 145.56 184.284 144.819 183.726 143.852C183.151 142.856 182.873 141.843 182.893 140.811C182.905 139.765 183.15 138.806 183.628 137.933C184.106 137.061 184.756 136.387 185.579 135.912C186.401 135.437 187.179 135.151 187.913 135.055C188.652 134.936 189.274 134.962 189.777 135.134L189.831 135.478L189.556 134.251L192.349 132.638L197.811 142.1C198.345 143.023 198.556 143.989 198.444 144.996C198.341 146.018 197.974 146.981 197.341 147.885C196.731 148.795 195.906 149.55 194.867 150.15ZM186.728 142.003C187.02 142.508 187.398 142.896 187.862 143.167C188.326 143.438 188.82 143.576 189.343 143.582C189.881 143.58 190.395 143.437 190.885 143.154C191.304 142.912 191.643 142.649 191.902 142.365C192.167 142.058 192.364 141.732 192.493 141.388C192.628 141.022 192.69 140.63 192.68 140.212L191.343 137.896C191.029 137.653 190.68 137.499 190.296 137.432C189.903 137.351 189.499 137.353 189.086 137.438C188.679 137.499 188.267 137.651 187.848 137.893C187.357 138.176 186.976 138.55 186.706 139.014C186.441 139.456 186.306 139.938 186.3 140.461C186.294 140.984 186.437 141.498 186.728 142.003ZM197.389 135.877C196.83 134.91 196.554 133.915 196.56 132.892C196.58 131.86 196.877 130.89 197.449 129.982C198.014 129.06 198.83 128.29 199.898 127.674C200.981 127.049 202.048 126.731 203.1 126.72C204.144 126.694 205.096 126.943 205.956 127.467C206.831 127.982 207.548 128.723 208.106 129.69C208.664 130.657 208.952 131.655 208.969 132.685C208.992 133.691 208.736 134.647 208.2 135.553C207.665 136.459 206.841 137.233 205.73 137.874C204.691 138.474 203.643 138.81 202.587 138.881C201.545 138.943 200.573 138.725 199.669 138.227C198.766 137.729 198.005 136.945 197.389 135.877ZM200.454 134.136C200.737 134.627 201.097 135.016 201.532 135.304C201.959 135.577 202.413 135.729 202.892 135.76C203.372 135.791 203.829 135.681 204.262 135.431C204.738 135.156 205.083 134.803 205.296 134.372C205.509 133.941 205.597 133.477 205.559 132.979C205.513 132.466 205.349 131.965 205.066 131.474C204.774 130.969 204.422 130.575 204.009 130.294C203.597 130.013 203.15 129.857 202.671 129.826C202.191 129.795 201.713 129.917 201.237 130.192C200.804 130.442 200.48 130.782 200.267 131.213C200.054 131.644 199.959 132.113 199.982 132.619C200.005 133.125 200.162 133.631 200.454 134.136ZM220.937 135.099C220.085 135.591 219.305 135.906 218.597 136.046C217.903 136.177 217.27 136.215 216.699 136.16C216.129 136.104 215.609 136.039 215.142 135.962L215.717 132.859C216.224 132.97 216.773 133.038 217.365 133.062C217.979 133.092 218.647 132.899 219.368 132.483C219.845 132.208 220.235 131.867 220.539 131.46C220.866 131.06 221.061 130.63 221.123 130.171C221.199 129.703 221.1 129.231 220.825 128.755L219.625 126.677L220.046 127.155C220.098 127.779 219.929 128.454 219.54 129.179C219.142 129.89 218.452 130.529 217.471 131.096C216.619 131.587 215.7 131.829 214.714 131.821C213.734 131.79 212.811 131.525 211.945 131.024C211.07 130.509 210.353 129.768 209.795 128.801C209.22 127.805 208.943 126.791 208.963 125.76C208.975 124.714 209.22 123.754 209.697 122.882C210.175 122.009 210.825 121.336 211.648 120.861C212.471 120.386 213.249 120.1 213.982 120.004C214.722 119.885 215.343 119.911 215.846 120.082L215.901 120.426L215.625 119.2L218.418 117.587L223.881 127.048C224.414 127.972 224.625 128.938 224.514 129.945C224.411 130.967 224.043 131.93 223.41 132.834C222.801 133.744 221.976 134.499 220.937 135.099ZM212.798 126.952C213.089 127.457 213.467 127.845 213.932 128.116C214.396 128.387 214.89 128.525 215.413 128.531C215.95 128.529 216.464 128.386 216.955 128.103C217.374 127.861 217.713 127.598 217.972 127.313C218.237 127.006 218.434 126.681 218.563 126.337C218.698 125.971 218.76 125.579 218.75 125.161L217.412 122.844C217.099 122.602 216.75 122.447 216.365 122.381C215.972 122.3 215.569 122.302 215.156 122.386C214.749 122.448 214.336 122.6 213.918 122.841C213.427 123.125 213.046 123.499 212.775 123.963C212.511 124.404 212.375 124.887 212.369 125.41C212.363 125.933 212.506 126.447 212.798 126.952ZM230.377 129.36L228.59 111.714L231.318 110.139L233.3 127.672L230.377 129.36ZM230.31 123.394L220.19 116.564L223.589 114.602L231.774 120.529L230.31 123.394Z" fill="white"/>
</svg>
