<svg width="327" height="313" viewBox="0 0 327 313" fill="none" xmlns="http://www.w3.org/2000/svg">
<mask id="path-1-inside-1_1249_2" fill="white">
<path d="M274.584 137.067C262.891 137.263 253.466 146.796 253.452 158.538C253.439 170.281 262.843 179.834 274.536 180.057L274.494 215.755L51.4941 215.497L51.5348 180.025C63.3936 180.021 73.0119 170.414 73.0258 158.551C73.0395 146.688 63.4431 137.057 51.5841 137.026L51.6313 96.4974L274.631 96.7551L274.584 137.067Z"/>
</mask>
<path d="M274.584 137.067C262.891 137.263 253.466 146.796 253.452 158.538C253.439 170.281 262.843 179.834 274.536 180.057L274.494 215.755L51.4941 215.497L51.5348 180.025C63.3936 180.021 73.0119 170.414 73.0258 158.551C73.0395 146.688 63.4431 137.057 51.5841 137.026L51.6313 96.4974L274.631 96.7551L274.584 137.067Z" fill="#F64D50"/>
<path d="M274.584 137.067L274.752 147.065L284.573 146.9L284.584 137.078L274.584 137.067ZM253.452 158.538L243.452 158.527L243.452 158.527L253.452 158.538ZM274.536 180.057L284.536 180.069L284.547 170.246L274.726 170.059L274.536 180.057ZM274.494 215.755L274.483 225.755L284.483 225.766L284.494 215.766L274.494 215.755ZM51.4941 215.497L41.4941 215.486L41.4827 225.485L51.4826 225.497L51.4941 215.497ZM51.5348 180.025L51.5312 170.025L41.5463 170.028L41.5348 180.013L51.5348 180.025ZM73.0258 158.551L83.0258 158.562L83.0258 158.562L73.0258 158.551ZM51.5841 137.026L41.5841 137.014L41.5724 146.999L51.5576 147.025L51.5841 137.026ZM51.6313 96.4974L51.6429 86.4974L41.643 86.4859L41.6313 96.4857L51.6313 96.4974ZM274.631 96.7551L284.631 96.7667L284.643 86.7666L274.643 86.7551L274.631 96.7551ZM274.584 137.067L274.417 127.068C257.282 127.355 243.472 141.321 243.452 158.527L253.452 158.538L263.452 158.55C263.46 152.27 268.501 147.17 274.752 147.065L274.584 137.067ZM253.452 158.538L243.452 158.527C243.433 175.734 257.211 189.729 274.345 190.055L274.536 180.057L274.726 170.059C268.474 169.94 263.445 164.829 263.452 158.55L253.452 158.538ZM274.536 180.057L264.536 180.046L264.494 215.743L274.494 215.755L284.494 215.766L284.536 180.069L274.536 180.057ZM274.494 215.755L274.506 205.755L51.5057 205.497L51.4941 215.497L51.4826 225.497L274.483 225.755L274.494 215.755ZM51.4941 215.497L61.4941 215.508L61.5348 180.036L51.5348 180.025L41.5348 180.013L41.4941 215.486L51.4941 215.497ZM51.5348 180.025L51.5384 190.025C68.9131 190.019 83.0054 175.943 83.0258 158.562L73.0258 158.551L63.0258 158.539C63.0184 164.884 57.8741 170.023 51.5312 170.025L51.5348 180.025ZM73.0258 158.551L83.0258 158.562C83.0458 141.182 68.9864 127.072 51.6106 127.026L51.5841 137.026L51.5576 147.025C57.8997 147.042 63.0331 152.193 63.0258 158.539L73.0258 158.551ZM51.5841 137.026L61.5841 137.037L61.6313 96.5091L51.6313 96.4974L41.6313 96.4857L41.5841 137.014L51.5841 137.026ZM51.6313 96.4974L51.6198 106.497L274.62 106.755L274.631 96.7551L274.643 86.7551L51.6429 86.4974L51.6313 96.4974ZM274.631 96.7551L264.631 96.7434L264.584 137.055L274.584 137.067L284.584 137.078L284.631 96.7667L274.631 96.7551Z" fill="#DB4447" mask="url(#path-1-inside-1_1249_2)"/>
<path d="M274.58 189.643C257.404 189.407 243.543 175.423 243.522 158.186C243.501 140.95 257.328 126.932 274.503 126.655L274.515 136.655C262.863 136.924 253.507 146.46 253.522 158.174C253.536 169.888 262.915 179.402 274.568 179.643L274.58 189.643Z" fill="#DB4447"/>
<path d="M51.6631 127.028C69.0344 127.092 83.1367 141.186 83.1611 158.506C83.1855 175.826 69.1227 189.814 51.7514 189.75C51.6593 189.75 51.5674 189.746 51.4756 189.745L51.4703 179.789C51.5593 179.791 51.6483 179.794 51.7374 179.794C63.594 179.838 73.1925 170.291 73.1759 158.469C73.1593 146.647 63.5337 137.028 51.6771 136.984C51.6007 136.984 51.5243 136.985 51.4481 136.986L51.4434 127.029C51.5166 127.029 51.5898 127.028 51.6631 127.028Z" fill="#DB4447"/>
<path d="M96.9594 138.325C95.9427 138.324 95.018 138.123 94.1851 137.722C93.3689 137.304 92.7196 136.67 92.2373 135.819C91.7549 134.969 91.5145 133.885 91.516 132.568C91.5175 131.335 91.7687 130.269 92.2697 129.369C92.7708 128.47 93.4299 127.779 94.2471 127.297C95.0644 126.798 95.9313 126.549 96.848 126.55C97.9313 126.551 98.7478 126.735 99.2974 127.102C99.8636 127.453 100.33 127.845 100.696 128.279L100.546 128.704L100.872 127.104L104.122 127.108L104.11 138.033L100.61 138.029L100.612 135.654L100.887 136.404C100.853 136.404 100.753 136.504 100.586 136.704C100.419 136.887 100.169 137.112 99.8355 137.378C99.5185 137.628 99.1183 137.844 98.6347 138.027C98.1678 138.226 97.6094 138.326 96.9594 138.325ZM97.9627 135.476C98.3794 135.476 98.7544 135.419 99.0879 135.302C99.4214 135.169 99.7133 134.986 99.9635 134.753C100.214 134.504 100.431 134.195 100.615 133.829L100.618 131.154C100.485 130.787 100.285 130.479 100.019 130.228C99.7524 129.961 99.436 129.761 99.0694 129.627C98.7029 129.477 98.2947 129.401 97.8447 129.401C97.3447 129.4 96.8779 129.533 96.4442 129.799C96.0273 130.049 95.6935 130.398 95.443 130.848C95.1925 131.298 95.0669 131.814 95.0662 132.398C95.0656 132.981 95.1983 133.506 95.4644 133.973C95.7305 134.44 96.0801 134.807 96.5132 135.074C96.9628 135.341 97.446 135.475 97.9627 135.476ZM107.739 118.312L111.239 118.316L111.216 138.041L107.716 138.037L107.739 118.312ZM114.843 118.32L118.343 118.324L118.321 138.049L114.821 138.045L114.843 118.32ZM121.082 132.453C121.083 131.336 121.342 130.336 121.86 129.454C122.394 128.571 123.137 127.88 124.087 127.381C125.038 126.866 126.13 126.608 127.363 126.61C128.613 126.611 129.696 126.871 130.612 127.389C131.529 127.89 132.228 128.582 132.71 129.466C133.209 130.35 133.458 131.35 133.457 132.467C133.455 133.584 133.204 134.592 132.703 135.491C132.219 136.374 131.518 137.073 130.601 137.589C129.683 138.104 128.583 138.361 127.3 138.36C126.1 138.358 125.025 138.124 124.076 137.656C123.143 137.188 122.41 136.512 121.878 135.629C121.346 134.745 121.08 133.686 121.082 132.453ZM124.607 132.482C124.606 133.048 124.722 133.565 124.955 134.032C125.188 134.482 125.504 134.841 125.904 135.108C126.303 135.375 126.753 135.509 127.253 135.51C127.803 135.51 128.278 135.378 128.679 135.111C129.079 134.845 129.388 134.487 129.605 134.037C129.822 133.571 129.931 133.054 129.932 132.488C129.932 131.904 129.825 131.388 129.608 130.937C129.392 130.487 129.084 130.129 128.685 129.861C128.285 129.594 127.81 129.46 127.26 129.46C126.76 129.459 126.31 129.592 125.91 129.858C125.509 130.124 125.192 130.482 124.958 130.932C124.725 131.382 124.607 131.898 124.607 132.482ZM143.654 127.154L146.047 132.781L145.397 132.831L147.504 127.158L150.904 127.162L145.965 138.731L142.474 131.477L139.265 138.724L134.304 127.143L137.704 127.147L140.347 133.225L139.147 133.048L141.252 128.401L140.679 127.15L143.654 127.154ZM164.611 138.328C163.711 138.327 162.869 138.168 162.086 137.85C161.32 137.532 160.67 137.09 160.138 136.523L161.59 134.599C162.123 135.083 162.614 135.434 163.064 135.651C163.53 135.852 163.947 135.952 164.313 135.953C164.597 135.953 164.847 135.928 165.063 135.878C165.297 135.812 165.48 135.721 165.614 135.604C165.747 135.471 165.814 135.304 165.814 135.104C165.815 134.821 165.698 134.596 165.465 134.429C165.249 134.262 164.965 134.128 164.616 134.028C164.266 133.911 163.891 133.794 163.491 133.677C162.491 133.359 161.767 132.9 161.318 132.299C160.885 131.682 160.669 131.015 160.67 130.298C160.671 129.748 160.813 129.198 161.097 128.649C161.397 128.082 161.865 127.616 162.498 127.25C163.149 126.868 163.982 126.677 164.999 126.678C165.916 126.679 166.691 126.772 167.324 126.956C167.957 127.14 168.557 127.441 169.123 127.858L167.795 129.907C167.479 129.656 167.121 129.447 166.721 129.28C166.338 129.097 165.98 128.996 165.646 128.979C165.346 128.962 165.088 128.995 164.871 129.078C164.671 129.161 164.513 129.269 164.396 129.403C164.279 129.536 164.221 129.677 164.22 129.827C164.203 130.144 164.32 130.394 164.57 130.578C164.836 130.761 165.169 130.904 165.569 131.004C165.969 131.104 166.36 131.222 166.744 131.355C167.277 131.523 167.735 131.748 168.118 132.032C168.501 132.316 168.792 132.658 168.992 133.058C169.208 133.442 169.316 133.908 169.315 134.458C169.314 135.125 169.139 135.758 168.788 136.358C168.454 136.941 167.937 137.415 167.236 137.781C166.552 138.147 165.677 138.329 164.611 138.328ZM171.399 132.511C171.4 131.394 171.66 130.394 172.177 129.512C172.712 128.629 173.454 127.938 174.405 127.439C175.355 126.924 176.447 126.667 177.681 126.668C178.931 126.669 180.014 126.929 180.93 127.447C181.846 127.948 182.545 128.64 183.027 129.524C183.526 130.408 183.775 131.408 183.774 132.525C183.773 133.642 183.522 134.65 183.02 135.549C182.536 136.432 181.835 137.131 180.918 137.647C180.001 138.162 178.9 138.419 177.617 138.418C176.417 138.417 175.342 138.182 174.393 137.714C173.46 137.246 172.728 136.571 172.195 135.687C171.663 134.803 171.398 133.744 171.399 132.511ZM174.924 132.54C174.923 133.106 175.039 133.623 175.272 134.09C175.505 134.54 175.821 134.899 176.221 135.166C176.621 135.433 177.07 135.567 177.57 135.568C178.12 135.568 178.596 135.436 178.996 135.169C179.396 134.903 179.705 134.545 179.922 134.096C180.139 133.629 180.248 133.113 180.249 132.546C180.25 131.963 180.142 131.446 179.926 130.996C179.71 130.545 179.402 130.187 179.002 129.919C178.602 129.652 178.127 129.518 177.577 129.518C177.077 129.517 176.627 129.65 176.227 129.916C175.827 130.182 175.51 130.54 175.276 130.99C175.042 131.44 174.925 131.956 174.924 132.54ZM190.049 138.657C189.066 138.656 188.241 138.355 187.575 137.754C186.909 137.137 186.56 136.345 186.528 135.378L186.537 127.203L190.037 127.207L190.029 134.082C190.062 134.566 190.187 134.957 190.403 135.258C190.619 135.541 190.986 135.683 191.503 135.684C192.019 135.685 192.461 135.51 192.828 135.16C193.212 134.811 193.504 134.336 193.705 133.736C193.922 133.12 194.031 132.429 194.032 131.662L194.037 127.212L197.537 127.216L197.525 138.141L194.35 138.137L194.077 136.137L194.127 136.362C193.876 136.812 193.559 137.211 193.175 137.561C192.792 137.91 192.333 138.177 191.799 138.359C191.283 138.559 190.699 138.658 190.049 138.657ZM204.312 127.224L204.585 129.174L204.535 128.999C204.919 128.316 205.461 127.767 206.162 127.351C206.862 126.918 207.721 126.703 208.738 126.704C209.771 126.705 210.629 127.014 211.311 127.632C212.011 128.233 212.368 129.016 212.384 129.983L212.374 138.158L208.874 138.154L208.882 131.279C208.866 130.796 208.733 130.412 208.484 130.129C208.251 129.828 207.851 129.678 207.284 129.677C206.751 129.677 206.284 129.851 205.883 130.201C205.483 130.55 205.174 131.025 204.957 131.624C204.739 132.224 204.63 132.916 204.629 133.699L204.624 138.149L201.124 138.145L201.137 127.22L204.312 127.224ZM220.418 138.467C219.401 138.466 218.493 138.232 217.694 137.764C216.894 137.28 216.262 136.588 215.796 135.687C215.347 134.786 215.123 133.72 215.125 132.486C215.126 131.253 215.377 130.203 215.878 129.337C216.379 128.471 217.063 127.813 217.931 127.364C218.798 126.915 219.781 126.692 220.881 126.693C221.581 126.694 222.248 126.803 222.881 127.02C223.531 127.238 224.072 127.572 224.505 128.022L224.504 129.122L224.516 118.447L227.991 118.451L227.968 138.176L224.468 138.172L224.471 136.047L224.745 136.797C224.177 137.263 223.544 137.663 222.843 137.995C222.143 138.311 221.334 138.468 220.418 138.467ZM221.571 135.519C222.038 135.519 222.446 135.461 222.796 135.345C223.163 135.212 223.48 135.029 223.747 134.796C224.031 134.546 224.273 134.238 224.473 133.872L224.476 131.197C224.343 130.83 224.135 130.522 223.852 130.271C223.586 130.004 223.253 129.804 222.853 129.67C222.47 129.52 222.045 129.444 221.578 129.444C221.061 129.443 220.578 129.576 220.128 129.842C219.694 130.091 219.344 130.441 219.076 130.891C218.809 131.34 218.675 131.857 218.675 132.44C218.674 133.024 218.807 133.549 219.073 134.016C219.339 134.483 219.689 134.85 220.122 135.117C220.571 135.384 221.054 135.518 221.571 135.519ZM98.4346 163.026L98.4437 155.151L96.5937 155.149L96.5973 152.049L98.4473 152.051L98.4516 148.251C98.4533 146.818 98.863 145.652 99.6807 144.753C100.515 143.837 101.716 143.38 103.282 143.382C103.749 143.383 104.266 143.458 104.832 143.609C105.415 143.743 105.923 143.968 106.356 144.286L104.878 146.809C104.712 146.592 104.512 146.45 104.279 146.383C104.062 146.3 103.854 146.258 103.654 146.258C103.154 146.257 102.745 146.423 102.428 146.756C102.111 147.089 101.952 147.622 101.952 148.356L101.947 152.056L105.247 152.059L105.244 155.159L101.944 155.156L101.935 163.031L98.4346 163.026ZM106.673 157.436C106.674 156.319 106.934 155.32 107.451 154.437C107.986 153.554 108.728 152.863 109.679 152.364C110.629 151.849 111.721 151.592 112.955 151.593C114.205 151.595 115.288 151.854 116.204 152.372C117.12 152.873 117.819 153.566 118.301 154.449C118.8 155.333 119.049 156.334 119.048 157.45C119.047 158.567 118.795 159.575 118.294 160.474C117.81 161.357 117.109 162.056 116.192 162.572C115.275 163.088 114.174 163.345 112.891 163.343C111.691 163.342 110.616 163.107 109.667 162.639C108.734 162.172 108.002 161.496 107.469 160.612C106.937 159.728 106.671 158.669 106.673 157.436ZM110.198 157.465C110.197 158.032 110.313 158.549 110.546 159.015C110.779 159.466 111.095 159.824 111.495 160.092C111.895 160.359 112.344 160.493 112.844 160.493C113.394 160.494 113.87 160.361 114.27 160.095C114.67 159.829 114.979 159.471 115.196 159.021C115.413 158.554 115.522 158.038 115.523 157.471C115.524 156.888 115.416 156.371 115.2 155.921C114.983 155.471 114.676 155.112 114.276 154.845C113.876 154.578 113.401 154.444 112.851 154.443C112.351 154.443 111.901 154.575 111.501 154.842C111.101 155.108 110.783 155.466 110.55 155.915C110.316 156.365 110.199 156.882 110.198 157.465ZM124.961 152.132L125.283 155.132L125.208 154.682C125.526 154.033 125.96 153.483 126.51 153.034C127.061 152.568 127.603 152.21 128.136 151.961C128.687 151.711 129.104 151.587 129.387 151.587L129.208 155.087C128.391 154.986 127.691 155.119 127.107 155.485C126.524 155.851 126.073 156.333 125.756 156.933C125.438 157.533 125.279 158.149 125.279 158.782L125.274 163.057L121.799 163.053L121.811 152.128L124.961 152.132ZM141.226 147.351L144.726 147.355L144.72 152.105L147.37 152.108L147.367 154.833L144.717 154.83L144.707 163.08L141.207 163.076L141.217 154.826L139.517 154.824L139.52 152.099L141.22 152.101L141.226 147.351ZM150.021 163.086L150.044 143.361L153.469 143.365L153.456 154.365L153.432 153.94C153.816 153.257 154.358 152.708 155.059 152.292C155.759 151.859 156.618 151.644 157.634 151.645C158.668 151.646 159.526 151.955 160.208 152.573C160.908 153.174 161.265 153.957 161.281 154.924L161.271 163.099L157.771 163.095L157.779 156.22C157.763 155.737 157.63 155.353 157.381 155.07C157.148 154.769 156.748 154.619 156.181 154.618C155.648 154.618 155.181 154.792 154.78 155.142C154.38 155.491 154.071 155.966 153.854 156.565C153.636 157.165 153.527 157.857 153.526 158.64L153.521 163.09L150.021 163.086ZM170.24 163.409C168.906 163.408 167.773 163.157 166.841 162.655C165.924 162.154 165.225 161.462 164.743 160.578C164.261 159.694 164.02 158.677 164.021 157.527C164.023 156.427 164.307 155.436 164.875 154.553C165.443 153.671 166.202 152.971 167.152 152.456C168.103 151.924 169.162 151.658 170.328 151.659C171.895 151.661 173.178 152.121 174.177 153.039C175.192 153.94 175.849 155.249 176.147 156.966L167.644 159.656L166.871 157.755L173.024 155.688L172.298 156.012C172.165 155.578 171.924 155.203 171.575 154.886C171.242 154.552 170.733 154.385 170.05 154.384C169.533 154.384 169.075 154.508 168.675 154.758C168.291 154.99 167.991 155.332 167.773 155.782C167.573 156.215 167.472 156.731 167.472 157.331C167.471 158.015 167.595 158.59 167.845 159.057C168.094 159.507 168.435 159.849 168.869 160.083C169.302 160.317 169.785 160.434 170.318 160.434C170.701 160.435 171.068 160.369 171.418 160.236C171.785 160.103 172.144 159.928 172.494 159.712L174.041 162.314C173.457 162.646 172.824 162.912 172.14 163.112C171.473 163.311 170.84 163.41 170.24 163.409ZM187.863 163.13L187.872 155.255L186.022 155.253L186.026 152.153L187.876 152.155L187.88 148.355C187.882 146.921 188.292 145.755 189.109 144.856C189.944 143.94 191.144 143.484 192.711 143.485C193.178 143.486 193.694 143.561 194.261 143.712C194.844 143.846 195.352 144.072 195.785 144.389L194.307 146.912C194.141 146.695 193.941 146.553 193.707 146.486C193.491 146.403 193.283 146.361 193.083 146.361C192.583 146.36 192.174 146.526 191.857 146.859C191.54 147.192 191.381 147.725 191.38 148.459L191.376 152.159L194.676 152.163L194.672 155.263L191.372 155.259L191.363 163.134L187.863 163.13ZM201.202 163.67C200.219 163.669 199.394 163.368 198.728 162.767C198.062 162.15 197.713 161.358 197.681 160.391L197.69 152.216L201.19 152.22L201.182 159.095C201.215 159.578 201.339 159.97 201.556 160.271C201.772 160.554 202.139 160.696 202.655 160.697C203.172 160.697 203.614 160.523 203.981 160.173C204.365 159.824 204.657 159.349 204.858 158.749C205.075 158.133 205.184 157.441 205.185 156.675L205.19 152.225L208.69 152.229L208.677 163.154L205.502 163.15L205.23 161.15L205.28 161.375C205.029 161.825 204.712 162.224 204.328 162.574C203.944 162.923 203.486 163.189 202.952 163.372C202.435 163.572 201.852 163.671 201.202 163.67ZM212.3 143.433L215.8 143.437L215.777 163.162L212.277 163.158L212.3 143.433ZM219.404 143.441L222.904 143.445L222.882 163.17L219.382 163.166L219.404 143.441ZM103.365 188.332C102.032 188.331 100.899 188.079 99.966 187.578C99.0499 187.077 98.3507 186.385 97.8684 185.501C97.3861 184.617 97.1456 183.6 97.1469 182.45C97.1482 181.35 97.4327 180.359 98.0004 179.476C98.568 178.593 99.3272 177.894 100.278 177.379C101.228 176.846 102.287 176.581 103.454 176.582C105.02 176.584 106.303 177.044 107.302 177.962C108.318 178.863 108.975 180.172 109.273 181.889L100.769 184.579L99.9967 182.678L106.149 180.61L105.424 180.935C105.291 180.501 105.05 180.126 104.7 179.809C104.367 179.475 103.859 179.308 103.176 179.307C102.659 179.306 102.2 179.431 101.8 179.68C101.417 179.913 101.116 180.255 100.899 180.704C100.698 181.137 100.598 181.654 100.597 182.254C100.596 182.937 100.721 183.512 100.97 183.979C101.22 184.43 101.561 184.772 101.994 185.006C102.427 185.239 102.91 185.357 103.444 185.357C103.827 185.358 104.194 185.291 104.544 185.159C104.911 185.026 105.269 184.851 105.619 184.635L107.166 187.237C106.583 187.569 105.949 187.835 105.265 188.034C104.599 188.234 103.965 188.333 103.365 188.332ZM116.401 180.597L118.48 177.125L121.955 177.129L117.623 183.124L116.401 180.597ZM122.543 188.054L118.318 188.049L109.905 177.115L114.205 177.12L122.543 188.054ZM115.947 184.547L113.493 188.044L110.018 188.04L114.349 182.195L115.947 184.547ZM131.451 188.365C130.801 188.364 130.16 188.246 129.527 188.012C128.91 187.762 128.394 187.411 127.978 186.961L128.079 185.936L128.071 193.311L124.596 193.307L124.615 176.882L127.615 176.885L128.112 179.011L127.838 178.26C128.405 177.778 129.039 177.378 129.739 177.063C130.44 176.747 131.248 176.589 132.165 176.59C133.182 176.592 134.09 176.834 134.889 177.319C135.689 177.786 136.313 178.47 136.762 179.371C137.227 180.255 137.46 181.322 137.458 182.572C137.457 183.805 137.197 184.855 136.68 185.721C136.162 186.587 135.453 187.244 134.552 187.693C133.652 188.142 132.618 188.366 131.451 188.365ZM130.755 185.614C131.321 185.614 131.838 185.49 132.305 185.241C132.789 184.991 133.172 184.642 133.456 184.192C133.757 183.726 133.907 183.201 133.908 182.617C133.909 182.001 133.776 181.467 133.51 181.017C133.26 180.55 132.911 180.191 132.461 179.941C132.028 179.674 131.545 179.54 131.012 179.539C130.545 179.539 130.128 179.605 129.761 179.738C129.411 179.854 129.094 180.037 128.811 180.287C128.544 180.52 128.31 180.819 128.11 181.186L128.107 183.861C128.24 184.211 128.431 184.519 128.681 184.786C128.93 185.053 129.23 185.262 129.58 185.412C129.946 185.546 130.338 185.613 130.755 185.614ZM145.577 188.381C144.244 188.379 143.111 188.128 142.178 187.627C141.262 187.126 140.563 186.433 140.08 185.55C139.598 184.666 139.357 183.649 139.359 182.499C139.36 181.399 139.645 180.407 140.212 179.525C140.78 178.642 141.539 177.943 142.49 177.427C143.44 176.895 144.499 176.63 145.666 176.631C147.232 176.633 148.515 177.093 149.514 178.01C150.53 178.912 151.186 180.221 151.484 181.938L142.981 184.628L142.209 182.727L148.361 180.659L147.636 180.983C147.503 180.55 147.262 180.175 146.912 179.857C146.579 179.524 146.071 179.356 145.387 179.356C144.871 179.355 144.412 179.48 144.012 179.729C143.628 179.962 143.328 180.303 143.111 180.753C142.91 181.186 142.81 181.703 142.809 182.303C142.808 182.986 142.933 183.561 143.182 184.028C143.432 184.478 143.773 184.821 144.206 185.054C144.639 185.288 145.122 185.405 145.655 185.406C146.039 185.406 146.406 185.34 146.756 185.207C147.123 185.074 147.481 184.9 147.831 184.684L149.378 187.285C148.795 187.618 148.161 187.884 147.477 188.083C146.81 188.282 146.177 188.382 145.577 188.381ZM157.183 177.169L157.505 180.17L157.43 179.72C157.748 179.07 158.182 178.52 158.732 178.071C159.283 177.605 159.825 177.247 160.359 176.998C160.909 176.749 161.326 176.624 161.609 176.624L161.43 180.124C160.613 180.023 159.913 180.156 159.329 180.522C158.746 180.888 158.295 181.371 157.978 181.97C157.66 182.57 157.501 183.186 157.501 183.82L157.496 188.095L154.021 188.091L154.033 177.166L157.183 177.169ZM164.287 177.178L167.787 177.182L167.775 188.107L164.275 188.103L164.287 177.178ZM164.217 173.302C164.217 172.786 164.418 172.361 164.818 172.028C165.235 171.695 165.677 171.529 166.144 171.53C166.61 171.53 167.035 171.697 167.418 172.031C167.818 172.365 168.017 172.79 168.017 173.307C168.016 173.823 167.816 174.248 167.415 174.581C167.032 174.897 166.606 175.055 166.14 175.055C165.673 175.054 165.232 174.895 164.815 174.578C164.416 174.244 164.216 173.819 164.217 173.302ZM176.754 188.417C175.42 188.415 174.287 188.164 173.355 187.663C172.439 187.162 171.739 186.469 171.257 185.586C170.775 184.702 170.534 183.685 170.536 182.535C170.537 181.435 170.821 180.443 171.389 179.561C171.957 178.678 172.716 177.979 173.666 177.463C174.617 176.931 175.676 176.666 176.842 176.667C178.409 176.669 179.692 177.129 180.691 178.046C181.706 178.948 182.363 180.257 182.661 181.974L174.158 184.664L173.385 182.763L179.538 180.695L178.812 181.019C178.679 180.586 178.438 180.211 178.089 179.893C177.756 179.56 177.248 179.392 176.564 179.392C176.048 179.391 175.589 179.516 175.189 179.765C174.805 179.998 174.505 180.339 174.288 180.789C174.087 181.222 173.986 181.739 173.986 182.339C173.985 183.022 174.109 183.597 174.359 184.064C174.608 184.514 174.95 184.857 175.383 185.09C175.816 185.324 176.299 185.441 176.832 185.442C177.216 185.442 177.582 185.376 177.932 185.243C178.299 185.11 178.658 184.936 179.008 184.72L180.555 187.321C179.971 187.654 179.338 187.92 178.654 188.119C177.987 188.318 177.354 188.418 176.754 188.417ZM188.385 177.205L188.658 179.156L188.608 178.981C188.992 178.298 189.534 177.748 190.235 177.332C190.935 176.9 191.794 176.684 192.811 176.685C193.844 176.687 194.702 176.996 195.385 177.613C196.084 178.214 196.441 178.998 196.457 179.965L196.447 188.14L192.947 188.136L192.955 181.261C192.939 180.777 192.806 180.394 192.557 180.11C192.324 179.81 191.924 179.659 191.357 179.659C190.824 179.658 190.357 179.833 189.957 180.182C189.556 180.532 189.247 181.006 189.03 181.606C188.813 182.206 188.704 182.897 188.703 183.681L188.697 188.131L185.197 188.127L185.21 177.202L188.385 177.205ZM209.317 187.18C208.834 187.562 208.225 187.87 207.491 188.102C206.774 188.335 206.066 188.451 205.366 188.45C204.116 188.449 203.024 188.222 202.092 187.771C201.176 187.303 200.46 186.644 199.944 185.794C199.445 184.926 199.196 183.885 199.198 182.668C199.199 181.451 199.475 180.418 200.026 179.569C200.577 178.703 201.295 178.045 202.178 177.596C203.079 177.147 204.021 176.923 205.004 176.925C205.987 176.926 206.837 177.06 207.554 177.327C208.287 177.595 208.911 177.946 209.427 178.38L207.725 180.628C207.492 180.444 207.167 180.26 206.751 180.077C206.351 179.876 205.876 179.776 205.326 179.775C204.843 179.774 204.401 179.899 204 180.148C203.6 180.398 203.283 180.739 203.049 181.172C202.815 181.605 202.698 182.105 202.698 182.672C202.697 183.205 202.821 183.697 203.071 184.147C203.32 184.598 203.662 184.956 204.095 185.223C204.544 185.474 205.069 185.6 205.669 185.6C206.052 185.601 206.403 185.551 206.719 185.452C207.053 185.335 207.336 185.177 207.57 184.978L209.317 187.18ZM217.379 188.464C216.045 188.462 214.912 188.211 213.98 187.71C213.064 187.209 212.364 186.516 211.882 185.632C211.4 184.749 211.159 183.732 211.161 182.582C211.162 181.482 211.446 180.49 212.014 179.608C212.582 178.725 213.341 178.026 214.291 177.51C215.242 176.978 216.301 176.713 217.467 176.714C219.034 176.716 220.317 177.176 221.316 178.093C222.331 178.995 222.988 180.304 223.286 182.021L214.783 184.711L214.01 182.81L220.163 180.742L219.437 181.066C219.304 180.633 219.063 180.257 218.714 179.94C218.381 179.607 217.872 179.439 217.189 179.439C216.672 179.438 216.214 179.562 215.814 179.812C215.43 180.045 215.13 180.386 214.913 180.836C214.712 181.269 214.611 181.786 214.611 182.386C214.61 183.069 214.734 183.644 214.984 184.111C215.233 184.561 215.575 184.903 216.008 185.137C216.441 185.371 216.924 185.488 217.457 185.489C217.84 185.489 218.207 185.423 218.557 185.29C218.924 185.157 219.283 184.983 219.633 184.766L221.18 187.368C220.596 187.701 219.963 187.967 219.279 188.166C218.612 188.365 217.979 188.465 217.379 188.464Z" fill="white"/>
</svg>
