<svg width="337" height="244" viewBox="0 0 337 244" fill="none" xmlns="http://www.w3.org/2000/svg">
<rect x="50.8301" y="130.33" width="213" height="109" transform="rotate(-30 50.8301 130.33)" fill="#F64D50" stroke="#DB4447" stroke-width="10"/>
<circle cx="264.896" cy="68.8633" r="26.5" transform="rotate(-30 264.896 68.8633)" fill="white" stroke="#DB4447" stroke-width="10"/>
<circle cx="75.8965" cy="178.863" r="26.5" transform="rotate(-30 75.8965 178.863)" fill="white" stroke="#DB4447" stroke-width="10"/>
<rect y="177.5" width="63" height="76.3669" transform="rotate(-30 0 177.5)" fill="white"/>
<rect x="245.373" y="32.4146" width="63" height="73.2534" transform="rotate(-30 245.373 32.4146)" fill="white"/>
<path d="M105.603 138.861C104.722 139.37 103.821 139.659 102.9 139.729C101.984 139.777 101.104 139.553 100.261 139.059C99.4173 138.564 98.6664 137.747 98.008 136.607C97.3914 135.538 97.0746 134.49 97.0576 133.46C97.0406 132.431 97.2649 131.503 97.7305 130.676C98.1877 129.834 98.8133 129.185 99.6071 128.726C100.545 128.185 101.344 127.935 102.004 127.978C102.67 127.997 103.27 128.103 103.804 128.295L103.886 128.738L103.368 127.19L106.182 125.565L111.645 135.026L108.614 136.776L107.426 134.72L108.04 135.232C108.011 135.248 107.974 135.385 107.93 135.641C107.877 135.884 107.773 136.203 107.618 136.601C107.468 136.976 107.23 137.363 106.903 137.764C106.599 138.17 106.166 138.536 105.603 138.861ZM105.044 135.893C105.405 135.685 105.7 135.447 105.931 135.179C106.153 134.897 106.314 134.592 106.413 134.265C106.505 133.924 106.538 133.548 106.514 133.139L105.176 130.822C104.878 130.572 104.55 130.405 104.194 130.321C103.83 130.224 103.456 130.209 103.072 130.277C102.679 130.33 102.288 130.469 101.898 130.694C101.465 130.944 101.128 131.293 100.886 131.741C100.65 132.166 100.536 132.635 100.545 133.15C100.553 133.665 100.703 134.175 100.995 134.68C101.287 135.185 101.665 135.573 102.129 135.844C102.593 136.115 103.08 136.257 103.588 136.272C104.111 136.278 104.596 136.151 105.044 135.893ZM104.906 116.141L107.937 114.391L117.799 131.473L114.768 133.223L104.906 116.141ZM111.058 112.589L114.09 110.839L123.952 127.921L120.921 129.671L111.058 112.589ZM123.537 121.694C122.979 120.727 122.703 119.732 122.709 118.708C122.729 117.677 123.025 116.707 123.598 115.799C124.162 114.876 124.979 114.107 126.047 113.49C127.129 112.865 128.197 112.547 129.249 112.536C130.293 112.511 131.245 112.76 132.105 113.283C132.98 113.798 133.696 114.539 134.255 115.506C134.813 116.473 135.101 117.472 135.118 118.501C135.141 119.508 134.884 120.464 134.349 121.37C133.813 122.276 132.99 123.049 131.878 123.691C130.839 124.291 129.792 124.626 128.736 124.697C127.694 124.76 126.721 124.542 125.818 124.044C124.914 123.545 124.154 122.762 123.537 121.694ZM126.603 119.953C126.886 120.444 127.245 120.833 127.681 121.12C128.108 121.393 128.561 121.545 129.041 121.576C129.521 121.607 129.977 121.498 130.41 121.248C130.886 120.973 131.231 120.62 131.444 120.189C131.657 119.758 131.745 119.293 131.708 118.795C131.662 118.283 131.498 117.781 131.214 117.291C130.923 116.785 130.57 116.392 130.158 116.111C129.745 115.829 129.299 115.673 128.819 115.642C128.34 115.611 127.861 115.733 127.385 116.008C126.952 116.258 126.629 116.599 126.416 117.03C126.203 117.461 126.108 117.929 126.131 118.436C126.154 118.942 126.311 119.448 126.603 119.953ZM140.418 105.799L145.309 109.471L144.771 109.839L143.752 103.874L146.696 102.174L148.219 114.661L141.563 110.132L142.416 118.011L132.32 110.474L135.265 108.774L140.597 112.71L139.471 113.159L138.964 108.082L137.841 107.287L140.418 105.799ZM164.153 104.971C163.374 105.421 162.566 105.704 161.729 105.822C160.907 105.931 160.123 105.873 159.378 105.649L159.671 103.257C160.374 103.409 160.975 103.466 161.473 103.429C161.977 103.369 162.388 103.247 162.706 103.064C162.951 102.922 163.155 102.776 163.318 102.624C163.486 102.449 163.599 102.278 163.657 102.111C163.705 101.929 163.68 101.751 163.58 101.578C163.438 101.332 163.225 101.196 162.939 101.168C162.668 101.132 162.356 101.158 162.003 101.247C161.642 101.321 161.258 101.407 160.854 101.506C159.829 101.732 158.972 101.697 158.283 101.403C157.599 101.085 157.078 100.616 156.72 99.9958C156.445 99.5195 156.292 98.9723 156.263 98.3544C156.239 97.7136 156.41 97.0761 156.775 96.4419C157.146 95.7849 157.772 95.2023 158.653 94.694C159.447 94.2356 160.164 93.9275 160.804 93.7696C161.444 93.6117 162.114 93.5715 162.813 93.649L162.69 96.0869C162.291 96.0287 161.876 96.0275 161.447 96.0831C161.023 96.116 160.663 96.2086 160.366 96.3608C160.098 96.4964 159.89 96.6544 159.745 96.8349C159.613 97.0071 159.53 97.1801 159.496 97.3539C159.461 97.5277 159.482 97.6795 159.557 97.8094C159.701 98.092 159.927 98.2502 160.235 98.284C160.557 98.3094 160.917 98.2654 161.313 98.152C161.71 98.0386 162.107 97.9438 162.506 97.8676C163.051 97.7453 163.56 97.711 164.034 97.7647C164.508 97.8184 164.931 97.9685 165.304 98.2149C165.684 98.4385 166.011 98.7885 166.286 99.2648C166.619 99.8422 166.784 100.478 166.781 101.173C166.784 101.845 166.574 102.514 166.151 103.182C165.743 103.841 165.077 104.437 164.153 104.971ZM167.114 96.5352C166.555 95.5682 166.279 94.573 166.285 93.5497C166.305 92.518 166.601 91.5482 167.174 90.6402C167.739 89.7177 168.555 88.9482 169.623 88.3315C170.705 87.7065 171.773 87.3885 172.825 87.3777C173.869 87.3523 174.821 87.6013 175.681 88.1247C176.556 88.6396 177.272 89.3807 177.831 90.3477C178.389 91.3148 178.677 92.313 178.694 93.3425C178.717 94.3491 178.461 95.3053 177.925 96.2111C177.389 97.1169 176.566 97.8906 175.455 98.5323C174.415 99.1323 173.368 99.4677 172.312 99.5386C171.27 99.6011 170.297 99.3832 169.394 98.8849C168.49 98.3865 167.73 97.6033 167.114 96.5352ZM170.179 94.7944C170.462 95.2851 170.822 95.6742 171.257 95.9617C171.684 96.2348 172.137 96.3868 172.617 96.4177C173.097 96.4486 173.553 96.3391 173.986 96.0891C174.463 95.8141 174.807 95.4611 175.02 95.0302C175.233 94.5993 175.321 94.1348 175.284 93.6367C175.238 93.1242 175.074 92.6226 174.79 92.1319C174.499 91.6267 174.147 91.2334 173.734 90.952C173.321 90.6707 172.875 90.5145 172.395 90.4836C171.916 90.4526 171.438 90.5747 170.961 90.8497C170.528 91.0997 170.205 91.4401 169.992 91.8711C169.779 92.302 169.684 92.7707 169.707 93.277C169.73 93.7834 169.887 94.2892 170.179 94.7944ZM186.334 92.511C185.482 93.0027 184.618 93.1554 183.74 92.9691C182.855 92.7684 182.156 92.2578 181.643 91.4373L177.556 84.3575L180.587 82.6075L184.025 88.5615C184.295 88.9634 184.599 89.2401 184.937 89.3915C185.266 89.5286 185.655 89.4679 186.102 89.2096C186.549 88.9513 186.844 88.5789 186.987 88.0924C187.144 87.5977 187.159 87.0405 187.032 86.4209C186.912 85.7785 186.66 85.1253 186.276 84.4613L184.051 80.6075L187.082 78.8575L192.545 88.3189L189.795 89.9064L188.557 88.3118L188.713 88.4817C188.721 88.9964 188.647 89.5011 188.49 89.9959C188.333 90.4907 188.069 90.9508 187.699 91.3762C187.352 91.8078 186.897 92.186 186.334 92.511ZM192.949 75.4702L194.162 77.0215L194.032 76.8949C194.022 76.1115 194.216 75.3643 194.614 74.6535C195.003 73.9282 195.638 73.3114 196.519 72.8031C197.414 72.2864 198.311 72.1243 199.211 72.3166C200.118 72.4863 200.82 72.9855 201.317 73.8143L205.405 80.8941L202.374 82.6441L198.936 76.6901C198.68 76.2799 198.373 76.0146 198.015 75.8942C197.663 75.7511 197.241 75.8212 196.751 76.1045C196.289 76.3712 195.972 76.756 195.801 77.2592C195.629 77.7623 195.6 78.3278 195.712 78.9557C195.825 79.5837 196.077 80.2369 196.468 80.9152L198.693 84.7691L195.662 86.5191L190.2 77.0577L192.949 75.4702ZM212.521 77.132C211.641 77.6403 210.737 77.8924 209.811 77.8883C208.877 77.8697 207.982 77.5874 207.128 77.0413C206.288 76.4868 205.56 75.6756 204.944 74.6075C204.327 73.5394 204.018 72.5051 204.018 71.5045C204.018 70.504 204.28 69.5922 204.806 68.7691C205.331 67.9461 206.071 67.2595 207.023 66.7095C207.629 66.3595 208.261 66.12 208.918 65.991C209.589 65.8536 210.225 65.8715 210.825 66.0445L211.375 66.9972L206.038 57.7523L209.047 56.0148L218.909 73.0972L215.878 74.8472L214.816 73.0069L215.429 73.5189C215.172 74.2064 214.823 74.8695 214.384 75.5081C213.936 76.1324 213.315 76.6737 212.521 77.132ZM212.042 74.0022C212.446 73.7689 212.771 73.5142 213.015 73.2382C213.266 72.9394 213.449 72.6223 213.563 72.2868C213.683 71.9287 213.739 71.5408 213.728 71.1233L212.391 68.8067C212.092 68.5558 211.758 68.3929 211.387 68.3181C211.023 68.2205 210.634 68.2139 210.221 68.2985C209.814 68.3602 209.409 68.5078 209.004 68.7411C208.557 68.9994 208.205 69.3566 207.949 69.8125C207.698 70.2457 207.57 70.7238 207.564 71.2468C207.558 71.7699 207.701 72.284 207.993 72.7892C208.285 73.2944 208.663 73.6824 209.127 73.9532C209.591 74.224 210.078 74.3665 210.586 74.3808C211.109 74.3867 211.594 74.2605 212.042 74.0022ZM119.255 159.5L115.318 152.68L113.715 153.605L112.165 150.921L113.768 149.996L111.868 146.705C111.151 145.463 110.921 144.249 111.179 143.061C111.442 141.851 112.252 140.854 113.609 140.07C114.013 139.837 114.498 139.644 115.064 139.49C115.635 139.314 116.188 139.255 116.722 139.312L116.707 142.236C116.454 142.132 116.21 142.109 115.975 142.168C115.745 142.205 115.544 142.273 115.371 142.373C114.938 142.623 114.668 142.971 114.56 143.418C114.453 143.865 114.582 144.406 114.949 145.041L116.799 148.246L119.657 146.596L121.207 149.28L118.349 150.93L122.286 157.75L119.255 159.5ZM123.584 150.535C123.026 149.567 122.75 148.572 122.755 147.549C122.776 146.517 123.072 145.547 123.645 144.639C124.209 143.717 125.025 142.947 126.093 142.331C127.176 141.706 128.243 141.388 129.296 141.377C130.339 141.352 131.291 141.601 132.152 142.124C133.026 142.639 133.743 143.38 134.301 144.347C134.86 145.314 135.147 146.312 135.164 147.342C135.187 148.348 134.931 149.305 134.396 150.21C133.86 151.116 133.037 151.89 131.925 152.532C130.886 153.132 129.838 153.467 128.782 153.538C127.741 153.6 126.768 153.382 125.864 152.884C124.961 152.386 124.201 151.603 123.584 150.535ZM126.649 148.794C126.933 149.284 127.292 149.674 127.727 149.961C128.155 150.234 128.608 150.386 129.088 150.417C129.567 150.448 130.024 150.338 130.457 150.088C130.933 149.813 131.278 149.46 131.491 149.029C131.704 148.599 131.792 148.134 131.754 147.636C131.709 147.124 131.544 146.622 131.261 146.131C130.969 145.626 130.617 145.233 130.204 144.951C129.792 144.67 129.346 144.514 128.866 144.483C128.386 144.452 127.908 144.574 127.432 144.849C126.999 145.099 126.676 145.439 126.463 145.87C126.25 146.301 126.155 146.77 126.177 147.276C126.2 147.783 126.358 148.288 126.649 148.794ZM136.754 136.782L138.536 139.217L138.246 138.865C138.195 138.144 138.296 137.451 138.547 136.786C138.79 136.107 139.08 135.526 139.417 135.043C139.768 134.551 140.066 134.235 140.312 134.093L141.91 137.212C141.153 137.533 140.613 137.999 140.291 138.608C139.97 139.217 139.822 139.861 139.847 140.539C139.873 141.217 140.044 141.83 140.361 142.378L142.498 146.081L139.489 147.818L134.027 138.357L136.754 136.782ZM148.435 124.495L151.466 122.745L153.841 126.859L156.136 125.534L157.499 127.894L155.204 129.219L159.329 136.364L156.298 138.114L152.173 130.969L150.7 131.819L149.338 129.459L150.81 128.609L148.435 124.495ZM163.931 133.707L154.068 116.624L157.034 114.912L162.534 124.438L162.3 124.083C162.29 123.299 162.484 122.552 162.882 121.841C163.272 121.116 163.907 120.499 164.787 119.991C165.682 119.474 166.58 119.312 167.48 119.504C168.386 119.674 169.088 120.173 169.586 121.002L173.673 128.082L170.642 129.832L167.205 123.878C166.949 123.468 166.642 123.202 166.283 123.082C165.931 122.939 165.51 123.009 165.019 123.292C164.557 123.559 164.241 123.944 164.069 124.447C163.898 124.95 163.868 125.516 163.981 126.143C164.093 126.771 164.345 127.425 164.737 128.103L166.962 131.957L163.931 133.707ZM181.59 123.857C180.436 124.524 179.329 124.874 178.271 124.908C177.227 124.933 176.275 124.684 175.415 124.161C174.555 123.637 173.837 122.878 173.262 121.882C172.712 120.929 172.462 119.929 172.511 118.88C172.56 117.832 172.866 116.847 173.431 115.924C173.987 114.987 174.77 114.227 175.78 113.644C177.137 112.861 178.478 112.616 179.802 112.91C181.133 113.181 182.357 113.985 183.475 115.321L177.464 121.91L175.843 120.652L180.131 115.78L179.666 116.424C179.334 116.115 178.937 115.911 178.475 115.812C178.02 115.69 177.497 115.8 176.905 116.141C176.457 116.4 176.123 116.737 175.902 117.154C175.686 117.547 175.597 117.993 175.635 118.491C175.678 118.967 175.85 119.464 176.15 119.984C176.491 120.575 176.887 121.011 177.337 121.29C177.779 121.555 178.245 121.68 178.737 121.665C179.229 121.651 179.706 121.51 180.168 121.243C180.5 121.052 180.784 120.811 181.021 120.52C181.271 120.221 181.494 119.891 181.689 119.528L184.331 121.005C183.993 121.585 183.578 122.133 183.086 122.647C182.609 123.154 182.11 123.557 181.59 123.857ZM196.703 114.786L192.765 107.966L191.163 108.891L189.613 106.206L191.215 105.281L189.315 101.99C188.599 100.749 188.369 99.5344 188.626 98.3467C188.889 97.1362 189.699 96.1392 191.056 95.3559C191.46 95.1226 191.945 94.9292 192.511 94.7758C193.083 94.5996 193.636 94.5403 194.169 94.5978L194.154 97.522C193.902 97.4177 193.658 97.3951 193.422 97.454C193.193 97.4901 192.992 97.5582 192.819 97.6582C192.385 97.9082 192.115 98.2567 192.008 98.7037C191.9 99.1508 192.03 99.6918 192.396 100.327L194.246 103.531L197.104 101.881L198.654 104.566L195.796 106.216L199.734 113.036L196.703 114.786ZM208.517 108.571C207.666 109.063 206.801 109.215 205.924 109.029C205.038 108.828 204.339 108.318 203.827 107.497L199.74 100.417L202.771 98.6674L206.208 104.621C206.479 105.023 206.783 105.3 207.12 105.451C207.45 105.588 207.838 105.528 208.286 105.269C208.733 105.011 209.028 104.639 209.171 104.152C209.328 103.657 209.343 103.1 209.216 102.481C209.095 101.838 208.843 101.185 208.46 100.521L206.235 96.6674L209.266 94.9174L214.728 104.379L211.979 105.966L210.741 104.372L210.896 104.541C210.905 105.056 210.831 105.561 210.674 106.056C210.517 106.55 210.253 107.011 209.883 107.436C209.535 107.868 209.08 108.246 208.517 108.571ZM207.983 85.4965L211.014 83.7465L220.877 100.829L217.846 102.579L207.983 85.4965ZM214.136 81.9443L217.167 80.1943L227.029 97.2766L223.998 99.0266L214.136 81.9443ZM136.2 178.931C135.046 179.597 133.939 179.948 132.881 179.981C131.837 180.007 130.885 179.758 130.025 179.234C129.165 178.711 128.447 177.951 127.872 176.955C127.322 176.003 127.071 175.002 127.121 173.954C127.17 172.906 127.476 171.92 128.041 170.998C128.597 170.061 129.38 169.301 130.39 168.717C131.747 167.934 133.088 167.689 134.412 167.983C135.743 168.254 136.967 169.058 138.085 170.395L132.074 176.983L130.453 175.725L134.741 170.853L134.276 171.497C133.944 171.189 133.547 170.985 133.085 170.885C132.63 170.763 132.107 170.873 131.515 171.215C131.067 171.473 130.733 171.811 130.511 172.227C130.296 172.621 130.207 173.067 130.245 173.565C130.288 174.04 130.46 174.538 130.76 175.057C131.101 175.649 131.497 176.084 131.947 176.364C132.388 176.628 132.855 176.753 133.347 176.739C133.839 176.724 134.316 176.583 134.778 176.317C135.11 176.125 135.394 175.884 135.631 175.594C135.881 175.295 136.104 174.964 136.299 174.601L138.941 176.078C138.603 176.658 138.188 177.206 137.696 177.721C137.219 178.227 136.72 178.631 136.2 178.931ZM143.607 165.705L143.667 161.659L146.676 159.921L145.931 167.28L143.607 165.705ZM152.658 169.082L148.999 171.195L136.241 165.946L139.965 163.796L152.658 169.082ZM145.193 169.351L144.821 173.607L141.811 175.345L142.632 168.116L145.193 169.351ZM160.524 164.888C159.961 165.213 159.347 165.432 158.682 165.547C158.023 165.639 157.4 165.594 156.814 165.413L156.389 164.475L160.076 170.862L157.067 172.599L148.854 158.375L151.452 156.875L152.948 158.465L152.335 157.953C152.584 157.251 152.932 156.588 153.38 155.964C153.828 155.34 154.449 154.798 155.243 154.34C156.123 153.832 157.031 153.587 157.965 153.605C158.891 153.61 159.774 153.889 160.614 154.443C161.46 154.975 162.195 155.782 162.82 156.865C163.437 157.933 163.738 158.971 163.724 159.98C163.71 160.989 163.425 161.913 162.871 162.753C162.317 163.593 161.534 164.304 160.524 164.888ZM158.543 162.856C159.033 162.573 159.418 162.206 159.698 161.756C159.991 161.298 160.148 160.803 160.168 160.272C160.195 159.718 160.062 159.188 159.771 158.683C159.462 158.149 159.08 157.754 158.624 157.497C158.174 157.218 157.692 157.083 157.177 157.091C156.669 157.077 156.184 157.203 155.722 157.47C155.318 157.703 154.99 157.969 154.739 158.268C154.494 158.544 154.312 158.861 154.191 159.219C154.077 159.555 154.025 159.931 154.035 160.349L155.373 162.665C155.663 162.902 155.983 163.073 156.333 163.179C156.683 163.285 157.047 163.315 157.425 163.27C157.809 163.202 158.182 163.064 158.543 162.856ZM172.757 157.825C171.602 158.491 170.496 158.842 169.438 158.875C168.394 158.901 167.442 158.652 166.581 158.128C165.721 157.605 165.004 156.845 164.429 155.849C163.879 154.897 163.628 153.896 163.677 152.848C163.726 151.8 164.033 150.814 164.597 149.892C165.153 148.955 165.937 148.195 166.947 147.611C168.304 146.828 169.644 146.583 170.969 146.877C172.299 147.148 173.523 147.952 174.642 149.289L168.63 155.877L167.009 154.619L171.298 149.747L170.832 150.391C170.5 150.083 170.103 149.879 169.642 149.779C169.187 149.657 168.663 149.767 168.071 150.109C167.624 150.367 167.289 150.705 167.068 151.121C166.853 151.515 166.764 151.961 166.801 152.459C166.845 152.934 167.016 153.432 167.316 153.951C167.658 154.543 168.054 154.978 168.504 155.258C168.945 155.522 169.412 155.647 169.904 155.633C170.396 155.618 170.873 155.478 171.334 155.211C171.666 155.019 171.951 154.778 172.187 154.488C172.438 154.189 172.661 153.858 172.856 153.495L175.498 154.972C175.159 155.552 174.744 156.1 174.252 156.615C173.775 157.121 173.277 157.525 172.757 157.825ZM177.185 142.307L178.966 144.743L178.676 144.39C178.625 143.669 178.726 142.976 178.977 142.311C179.22 141.632 179.51 141.051 179.847 140.568C180.198 140.076 180.496 139.76 180.742 139.618L182.34 142.737C181.583 143.058 181.043 143.524 180.722 144.133C180.4 144.742 180.252 145.386 180.277 146.064C180.303 146.742 180.474 147.355 180.791 147.904L182.929 151.606L179.919 153.343L174.457 143.882L177.185 142.307ZM183.337 138.755L186.368 137.005L191.83 146.466L188.799 148.216L183.337 138.755ZM181.334 135.437C181.076 134.989 181.037 134.521 181.216 134.032C181.411 133.535 181.71 133.17 182.114 132.937C182.518 132.704 182.97 132.635 183.468 132.732C183.981 132.821 184.367 133.089 184.625 133.537C184.884 133.984 184.923 134.452 184.743 134.941C184.57 135.407 184.281 135.756 183.876 135.99C183.472 136.223 183.011 136.307 182.491 136.241C181.978 136.152 181.593 135.884 181.334 135.437ZM199.757 142.236C198.602 142.903 197.496 143.253 196.437 143.287C195.394 143.312 194.441 143.063 193.581 142.54C192.721 142.017 192.003 141.257 191.428 140.261C190.878 139.308 190.628 138.308 190.677 137.26C190.726 136.211 191.033 135.226 191.597 134.303C192.153 133.367 192.936 132.606 193.947 132.023C195.304 131.24 196.644 130.995 197.969 131.289C199.299 131.56 200.523 132.364 201.641 133.701L195.63 140.289L194.009 139.031L198.298 134.159L197.832 134.803C197.5 134.494 197.103 134.29 196.642 134.191C196.187 134.069 195.663 134.179 195.071 134.521C194.624 134.779 194.289 135.116 194.068 135.533C193.853 135.927 193.764 136.372 193.801 136.87C193.844 137.346 194.016 137.843 194.316 138.363C194.658 138.955 195.054 139.39 195.503 139.669C195.945 139.934 196.412 140.059 196.904 140.044C197.396 140.03 197.872 139.889 198.334 139.622C198.666 139.431 198.951 139.19 199.187 138.899C199.438 138.6 199.661 138.27 199.855 137.907L202.498 139.384C202.159 139.964 201.744 140.512 201.252 141.027C200.775 141.533 200.276 141.936 199.757 142.236ZM204.206 126.706L205.419 128.257L205.289 128.131C205.279 127.347 205.473 126.6 205.871 125.889C206.26 125.164 206.895 124.547 207.776 124.039C208.671 123.522 209.568 123.36 210.468 123.552C211.375 123.722 212.077 124.221 212.574 125.05L216.662 132.13L213.631 133.88L210.193 127.926C209.937 127.516 209.63 127.25 209.272 127.13C208.92 126.987 208.498 127.057 208.008 127.34C207.546 127.607 207.229 127.992 207.058 128.495C206.886 128.998 206.857 129.564 206.969 130.192C207.081 130.82 207.333 131.473 207.725 132.151L209.95 136.005L206.919 137.755L201.457 128.294L204.206 126.706ZM227.319 124.851C227.092 125.425 226.719 125.996 226.201 126.565C225.697 127.125 225.142 127.58 224.536 127.93C223.453 128.555 222.395 128.906 221.362 128.983C220.335 129.037 219.385 128.826 218.513 128.348C217.646 127.847 216.909 127.07 216.3 126.017C215.692 124.963 215.414 123.93 215.465 122.919C215.508 121.894 215.799 120.965 216.339 120.134C216.894 119.294 217.597 118.629 218.448 118.137C219.3 117.645 220.103 117.336 220.857 117.208C221.625 117.073 222.341 117.063 223.006 117.18L222.658 119.979C222.365 119.937 221.991 119.94 221.539 119.99C221.093 120.017 220.631 120.168 220.155 120.443C219.736 120.684 219.416 121.013 219.195 121.43C218.973 121.846 218.87 122.301 218.885 122.792C218.899 123.284 219.048 123.776 219.332 124.267C219.598 124.728 219.952 125.092 220.394 125.356C220.835 125.621 221.31 125.761 221.819 125.775C222.334 125.766 222.851 125.612 223.37 125.312C223.702 125.12 223.981 124.902 224.205 124.657C224.435 124.39 224.601 124.111 224.703 123.821L227.319 124.851ZM234.939 121.924C233.784 122.591 232.678 122.941 231.62 122.974C230.576 123 229.624 122.751 228.764 122.227C227.903 121.704 227.186 120.944 226.611 119.948C226.061 118.996 225.81 117.995 225.859 116.947C225.908 115.899 226.215 114.913 226.779 113.991C227.336 113.054 228.119 112.294 229.129 111.711C230.486 110.927 231.826 110.683 233.151 110.976C234.481 111.247 235.706 112.051 236.824 113.388L230.812 119.976L229.191 118.718L233.48 113.846L233.015 114.49C232.682 114.182 232.286 113.978 231.824 113.879C231.369 113.757 230.845 113.866 230.253 114.208C229.806 114.466 229.472 114.804 229.25 115.22C229.035 115.614 228.946 116.06 228.983 116.558C229.027 117.033 229.198 117.531 229.498 118.05C229.84 118.642 230.236 119.078 230.686 119.357C231.127 119.621 231.594 119.746 232.086 119.732C232.578 119.717 233.055 119.577 233.517 119.31C233.849 119.118 234.133 118.877 234.369 118.587C234.62 118.288 234.843 117.957 235.038 117.595L237.68 119.071C237.342 119.652 236.926 120.199 236.435 120.714C235.957 121.221 235.459 121.624 234.939 121.924Z" fill="white"/>
</svg>
