<svg width="552" height="418" viewBox="0 0 552 418" fill="none" xmlns="http://www.w3.org/2000/svg">
<mask id="path-1-inside-1_1249_81" fill="white">
<path d="M499.801 146.436C499.387 146.412 498.97 146.399 498.55 146.398C486.676 146.385 477.04 155.999 477.026 167.873C477.012 179.747 486.627 189.384 498.501 189.397C498.921 189.398 499.338 189.384 499.752 189.361L499.713 223.472L51.4941 222.954L51.5348 187.482C63.3936 187.478 73.0119 177.871 73.0258 166.008C73.0395 154.145 63.4431 144.514 51.5841 144.483L51.6313 103.955L499.85 104.472L499.801 146.436Z"/>
</mask>
<path d="M499.801 146.436C499.387 146.412 498.97 146.399 498.55 146.398C486.676 146.385 477.04 155.999 477.026 167.873C477.012 179.747 486.627 189.384 498.501 189.397C498.921 189.398 499.338 189.384 499.752 189.361L499.713 223.472L51.4941 222.954L51.5348 187.482C63.3936 187.478 73.0119 177.871 73.0258 166.008C73.0395 154.145 63.4431 144.514 51.5841 144.483L51.6313 103.955L499.85 104.472L499.801 146.436Z" fill="#F64D50"/>
<path d="M499.801 146.436L499.217 156.419L509.789 157.038L509.801 146.448L499.801 146.436ZM498.55 146.398L498.562 136.398L498.562 136.398L498.55 146.398ZM477.026 167.873L467.026 167.861L467.026 167.862L477.026 167.873ZM498.501 189.397L498.489 199.397L498.489 199.397L498.501 189.397ZM499.752 189.361L509.752 189.372L509.764 178.782L499.191 179.377L499.752 189.361ZM499.713 223.472L499.701 233.472L509.701 233.484L509.713 223.484L499.713 223.472ZM51.4941 222.954L41.4941 222.943L41.4827 232.943L51.4826 232.954L51.4941 222.954ZM51.5348 187.482L51.5312 177.482L41.5463 177.486L41.5348 187.471L51.5348 187.482ZM73.0258 166.008L83.0258 166.02L83.0258 166.02L73.0258 166.008ZM51.5841 144.483L41.5841 144.471L41.5724 154.457L51.5576 154.483L51.5841 144.483ZM51.6313 103.955L51.6429 93.9549L41.643 93.9434L41.6313 103.943L51.6313 103.955ZM499.85 104.472L509.85 104.484L509.862 94.484L499.861 94.4725L499.85 104.472ZM499.801 146.436L500.385 136.453C499.794 136.419 499.185 136.399 498.562 136.398L498.55 146.398L498.539 156.398C498.755 156.398 498.981 156.405 499.217 156.419L499.801 146.436ZM498.55 146.398L498.562 136.398C481.165 136.378 467.046 150.465 467.026 167.861L477.026 167.873L487.026 167.885C487.033 161.534 492.188 156.391 498.539 156.398L498.55 146.398ZM477.026 167.873L467.026 167.862C467.006 185.259 481.093 199.377 498.489 199.397L498.501 189.397L498.513 179.397C492.161 179.39 487.019 174.235 487.026 167.885L477.026 167.873ZM498.501 189.397L498.489 199.397C499.131 199.398 499.742 199.377 500.313 199.345L499.752 189.361L499.191 179.377C498.934 179.391 498.711 179.398 498.512 179.397L498.501 189.397ZM499.752 189.361L489.752 189.349L489.713 223.461L499.713 223.472L509.713 223.484L509.752 189.372L499.752 189.361ZM499.713 223.472L499.724 213.472L51.5057 212.954L51.4941 222.954L51.4826 232.954L499.701 233.472L499.713 223.472ZM51.4941 222.954L61.4941 222.966L61.5348 187.494L51.5348 187.482L41.5348 187.471L41.4941 222.943L51.4941 222.954ZM51.5348 187.482L51.5384 197.482C68.9131 197.476 83.0054 183.401 83.0258 166.02L73.0258 166.008L63.0258 165.997C63.0184 172.342 57.8741 177.48 51.5312 177.482L51.5348 187.482ZM73.0258 166.008L83.0258 166.02C83.0458 148.64 68.9864 134.529 51.6106 134.483L51.5841 144.483L51.5576 154.483C57.8997 154.5 63.0331 159.651 63.0258 165.997L73.0258 166.008ZM51.5841 144.483L61.5841 144.495L61.6313 103.967L51.6313 103.955L41.6313 103.943L41.5841 144.471L51.5841 144.483ZM51.6313 103.955L51.6198 113.955L499.838 114.472L499.85 104.472L499.861 94.4725L51.6429 93.9549L51.6313 103.955ZM499.85 104.472L489.85 104.461L489.801 146.424L499.801 146.436L509.801 146.448L509.85 104.484L499.85 104.472Z" fill="#DB4447" mask="url(#path-1-inside-1_1249_81)"/>
<path d="M51.6629 134.486C69.0341 134.55 83.1364 148.643 83.1609 165.964C83.1853 183.284 69.1224 197.272 51.7511 197.208C51.6591 197.207 51.5672 197.204 51.4754 197.202L51.4696 187.248C51.5585 187.249 51.6475 187.252 51.7367 187.252C63.5933 187.296 73.1923 177.748 73.1757 165.927C73.159 154.105 63.5334 144.486 51.6768 144.442C51.6004 144.441 51.5241 144.443 51.4479 144.443L51.4432 134.487C51.5163 134.487 51.5896 134.485 51.6629 134.486Z" fill="#DB4447"/>
<path d="M116.177 153.672L133.537 153.692L133.531 158.592L127.266 158.585L127.242 179.445L122.167 179.439L122.191 158.579L116.171 158.572L116.177 153.672ZM142.966 169.943C142.965 170.76 143.209 171.542 143.698 172.289C144.187 173.036 144.828 173.644 145.621 174.111C146.437 174.579 147.324 174.813 148.28 174.814C149.33 174.815 150.264 174.583 151.081 174.117C151.898 173.652 152.541 173.046 153.008 172.3C153.499 171.554 153.745 170.772 153.746 169.956L153.765 153.716L158.77 153.721L158.751 170.066C158.749 171.956 158.28 173.636 157.345 175.105C156.41 176.55 155.149 177.692 153.561 178.53C151.973 179.345 150.211 179.751 148.275 179.749C146.361 179.747 144.612 179.337 143.026 178.518C141.464 177.676 140.217 176.532 139.285 175.084C138.353 173.613 137.889 171.932 137.891 170.042L137.91 153.697L142.985 153.703L142.966 169.943ZM172.695 153.737C174.305 153.739 175.739 153.951 176.999 154.372C178.258 154.77 179.308 155.355 180.147 156.126C181.009 156.874 181.662 157.784 182.104 158.858C182.546 159.909 182.766 161.099 182.765 162.429C182.763 163.479 182.599 164.529 182.271 165.578C181.966 166.628 181.452 167.584 180.728 168.447C180.027 169.309 179.093 170.008 177.925 170.543C176.758 171.055 175.311 171.31 173.584 171.308L169.944 171.304L169.935 179.494L164.86 179.488L164.89 153.728L172.695 153.737ZM173.555 166.408C174.325 166.409 174.967 166.282 175.48 166.026C175.994 165.77 176.391 165.443 176.672 165.047C176.975 164.651 177.186 164.243 177.303 163.823C177.444 163.38 177.514 162.971 177.514 162.598C177.515 162.318 177.468 161.968 177.376 161.548C177.306 161.104 177.143 160.661 176.887 160.217C176.631 159.774 176.235 159.4 175.698 159.096C175.185 158.792 174.486 158.639 173.599 158.638L169.959 158.634L169.95 166.404L173.555 166.408ZM178.311 169.564L184.67 179.511L178.755 179.504L172.256 169.697L178.311 169.564ZM211.918 180.593L192.408 162.93L193.912 163.772L193.999 179.522L188.854 179.516L188.885 152.741L189.095 152.741L208.185 170.333L207.065 169.842L206.979 153.777L212.089 153.783L212.058 180.593L211.918 180.593ZM228.515 166.717C228.517 164.943 228.857 163.264 229.535 161.678C230.214 160.092 231.149 158.693 232.34 157.481C233.555 156.246 234.956 155.279 236.544 154.581C238.131 153.883 239.835 153.535 241.655 153.537C243.451 153.539 245.143 153.891 246.729 154.593C248.314 155.295 249.713 156.265 250.925 157.503C252.16 158.717 253.115 160.119 253.79 161.706C254.488 163.293 254.837 164.974 254.835 166.747C254.832 168.567 254.48 170.27 253.779 171.856C253.1 173.442 252.142 174.841 250.904 176.053C249.689 177.241 248.288 178.173 246.701 178.848C245.113 179.523 243.421 179.859 241.624 179.857C239.804 179.855 238.101 179.515 236.516 178.836C234.93 178.158 233.531 177.223 232.319 176.031C231.13 174.817 230.198 173.415 229.524 171.828C228.849 170.241 228.512 168.537 228.515 166.717ZM233.765 166.723C233.763 167.866 233.96 168.94 234.356 169.944C234.775 170.924 235.345 171.8 236.068 172.571C236.814 173.318 237.665 173.902 238.621 174.324C239.6 174.745 240.662 174.956 241.805 174.957C242.902 174.958 243.917 174.75 244.851 174.331C245.808 173.912 246.637 173.329 247.338 172.584C248.039 171.814 248.588 170.94 248.986 169.96C249.384 168.958 249.583 167.884 249.585 166.741C249.586 165.574 249.377 164.489 248.958 163.485C248.563 162.482 248.004 161.606 247.281 160.858C246.582 160.088 245.755 159.492 244.798 159.071C243.842 158.65 242.804 158.438 241.684 158.437C240.564 158.436 239.526 158.645 238.568 159.063C237.611 159.482 236.771 160.076 236.046 160.846C235.322 161.591 234.761 162.466 234.363 163.469C233.965 164.471 233.766 165.556 233.765 166.723ZM282.943 180.675L263.434 163.012L264.938 163.854L265.024 179.604L259.879 179.598L259.91 152.823L260.12 152.823L279.21 170.415L278.091 169.924L278.004 153.859L283.114 153.865L283.083 180.675L282.943 180.675ZM314.878 160.132C313.898 159.594 312.895 159.149 311.869 158.798C310.866 158.447 309.921 158.271 309.035 158.27C307.938 158.269 307.074 158.489 306.444 158.932C305.813 159.374 305.498 160.039 305.497 160.926C305.496 161.532 305.729 162.081 306.195 162.572C306.684 163.039 307.302 163.459 308.048 163.834C308.818 164.208 309.611 164.547 310.427 164.851C311.173 165.132 311.908 165.471 312.631 165.869C313.377 166.243 314.042 166.722 314.624 167.306C315.207 167.867 315.673 168.579 316.022 169.443C316.371 170.283 316.545 171.322 316.543 172.558C316.542 173.865 316.202 175.078 315.524 176.197C314.846 177.317 313.853 178.225 312.546 178.924C311.238 179.599 309.628 179.935 307.715 179.933C306.735 179.932 305.731 179.838 304.705 179.65C303.702 179.439 302.711 179.134 301.731 178.736C300.752 178.315 299.807 177.789 298.898 177.158L301.142 173.206C301.749 173.65 302.401 174.047 303.101 174.398C303.824 174.725 304.547 174.983 305.27 175.17C305.993 175.358 306.658 175.452 307.265 175.453C307.872 175.453 308.478 175.372 309.085 175.21C309.715 175.024 310.229 174.721 310.626 174.302C311.047 173.882 311.257 173.299 311.258 172.552C311.259 172.039 311.084 171.572 310.735 171.152C310.409 170.731 309.954 170.346 309.371 169.995C308.812 169.645 308.194 169.34 307.517 169.083C306.724 168.779 305.908 168.428 305.068 168.03C304.229 167.633 303.436 167.153 302.69 166.592C301.967 166.008 301.373 165.296 300.908 164.455C300.465 163.592 300.245 162.541 300.246 161.305C300.248 159.811 300.576 158.517 301.231 157.421C301.909 156.325 302.855 155.463 304.069 154.834C305.283 154.182 306.683 153.822 308.27 153.754C310.347 153.756 312.026 154.003 313.309 154.495C314.615 154.986 315.781 155.571 316.807 156.249L314.878 160.132ZM319.945 166.822C319.947 165.049 320.287 163.369 320.966 161.784C321.644 160.198 322.579 158.799 323.771 157.587C324.986 156.352 326.387 155.385 327.974 154.687C329.562 153.988 331.265 153.64 333.085 153.643C334.882 153.645 336.573 153.997 338.159 154.698C339.745 155.4 341.144 156.37 342.356 157.608C343.591 158.823 344.546 160.224 345.221 161.812C345.919 163.399 346.267 165.079 346.265 166.853C346.263 168.673 345.911 170.376 345.209 171.962C344.531 173.547 343.572 174.946 342.334 176.158C341.12 177.347 339.719 178.279 338.131 178.953C336.544 179.628 334.852 179.965 333.055 179.963C331.235 179.96 329.532 179.62 327.946 178.942C326.36 178.263 324.961 177.328 323.749 176.137C322.561 174.922 321.629 173.521 320.954 171.934C320.279 170.346 319.943 168.642 319.945 166.822ZM325.195 166.828C325.194 167.972 325.391 169.045 325.786 170.049C326.205 171.03 326.776 171.905 327.498 172.676C328.244 173.424 329.095 174.008 330.051 174.429C331.031 174.85 332.092 175.061 333.236 175.063C334.332 175.064 335.348 174.855 336.281 174.436C337.238 174.017 338.068 173.435 338.768 172.689C339.469 171.92 340.019 171.046 340.416 170.066C340.814 169.063 341.014 167.99 341.015 166.847C341.016 165.68 340.808 164.595 340.389 163.591C339.993 162.587 339.434 161.712 338.712 160.964C338.013 160.193 337.185 159.597 336.229 159.176C335.273 158.755 334.235 158.544 333.115 158.543C331.995 158.541 330.956 158.75 329.999 159.169C329.042 159.588 328.201 160.182 327.477 160.951C326.753 161.697 326.192 162.571 325.794 163.574C325.396 164.577 325.196 165.662 325.195 166.828ZM355.871 170.189C355.87 171.006 356.114 171.787 356.603 172.535C357.092 173.282 357.733 173.889 358.526 174.357C359.342 174.825 360.229 175.059 361.185 175.06C362.235 175.061 363.169 174.829 363.986 174.363C364.803 173.898 365.446 173.292 365.913 172.545C366.404 171.799 366.65 171.018 366.651 170.201L366.67 153.961L371.675 153.967L371.656 170.312C371.654 172.202 371.185 173.882 370.25 175.35C369.315 176.796 368.054 177.938 366.466 178.776C364.878 179.591 363.116 179.997 361.18 179.995C359.266 179.993 357.517 179.582 355.931 178.764C354.369 177.922 353.122 176.777 352.19 175.33C351.258 173.859 350.794 172.178 350.796 170.288L350.815 153.943L355.89 153.949L355.871 170.189ZM400.829 180.811L381.319 163.148L382.823 163.99L382.91 179.74L377.765 179.734L377.796 152.959L378.006 152.959L397.096 170.551L395.976 170.06L395.89 153.995L401 154.001L400.969 180.811L400.829 180.811ZM407.604 179.769L407.634 154.009L415.334 154.018C417.924 154.021 420.128 154.408 421.947 155.18C423.766 155.952 425.224 156.981 426.319 158.265C427.437 159.55 428.252 160.986 428.764 162.573C429.275 164.16 429.53 165.759 429.528 167.369C429.526 169.282 429.174 171.009 428.472 172.548C427.794 174.064 426.859 175.369 425.668 176.464C424.476 177.536 423.099 178.363 421.535 178.945C419.971 179.503 418.314 179.781 416.564 179.779L407.604 179.769ZM412.685 174.874L415.695 174.878C416.978 174.879 418.145 174.717 419.195 174.392C420.245 174.043 421.144 173.543 421.892 172.89C422.663 172.238 423.247 171.422 423.645 170.442C424.066 169.439 424.277 168.296 424.279 167.013C424.281 165.333 424.002 163.968 423.443 162.917C422.908 161.843 422.232 161.014 421.416 160.43C420.624 159.845 419.807 159.448 418.968 159.237C418.128 159.002 417.416 158.885 416.833 158.884L412.703 158.879L412.685 174.874ZM432.572 153.022L436.947 153.027L436.924 172.837L432.549 172.832L432.572 153.022ZM434.85 180.29C434.01 180.289 433.322 180.067 432.786 179.623C432.25 179.155 431.982 178.548 431.983 177.802C431.984 177.078 432.253 176.472 432.79 175.983C433.351 175.493 434.039 175.249 434.856 175.25C435.673 175.251 436.337 175.497 436.85 175.987C437.386 176.478 437.654 177.085 437.653 177.808C437.652 178.555 437.395 179.161 436.881 179.627C436.367 180.07 435.69 180.291 434.85 180.29Z" fill="white"/>
</svg>
