<svg width="543" height="113" viewBox="0 0 543 113" fill="none" xmlns="http://www.w3.org/2000/svg">
<rect y="15" width="543" height="98" rx="30" fill="#5C5C5C"/>
<rect x="1.5" y="1.5" width="540" height="104" rx="28.5" fill="#EF6C0A" stroke="#5C5C5C" stroke-width="3"/>
<path d="M403.91 77.24C403.03 77.24 402.17 77.09 401.33 76.79C400.51 76.47 399.83 76 399.29 75.38L400.46 73.76C400.98 74.26 401.51 74.64 402.05 74.9C402.61 75.14 403.16 75.26 403.7 75.26C404.1 75.26 404.47 75.21 404.81 75.11C405.15 75.01 405.42 74.85 405.62 74.63C405.84 74.39 405.95 74.07 405.95 73.67C405.95 73.23 405.8 72.88 405.5 72.62C405.22 72.36 404.85 72.15 404.39 71.99C403.95 71.83 403.48 71.68 402.98 71.54C401.96 71.2 401.18 70.73 400.64 70.13C400.1 69.53 399.83 68.8 399.83 67.94C399.83 67.28 399.99 66.67 400.31 66.11C400.65 65.53 401.14 65.06 401.78 64.7C402.44 64.34 403.25 64.16 404.21 64.16C405.07 64.16 405.84 64.27 406.52 64.49C407.2 64.69 407.84 65.03 408.44 65.51L407.33 67.25C406.97 66.87 406.54 66.59 406.04 66.41C405.54 66.23 405.09 66.13 404.69 66.11C404.35 66.09 404.02 66.14 403.7 66.26C403.4 66.38 403.15 66.55 402.95 66.77C402.75 66.99 402.65 67.25 402.65 67.55C402.65 67.97 402.79 68.31 403.07 68.57C403.35 68.83 403.71 69.04 404.15 69.2C404.61 69.34 405.06 69.49 405.5 69.65C406.12 69.83 406.67 70.07 407.15 70.37C407.63 70.67 408.01 71.04 408.29 71.48C408.59 71.92 408.74 72.47 408.74 73.13C408.74 73.87 408.56 74.56 408.2 75.2C407.86 75.82 407.33 76.32 406.61 76.7C405.91 77.06 405.01 77.24 403.91 77.24ZM419.967 77.3C419.027 77.3 418.117 77.08 417.237 76.64C416.377 76.2 415.707 75.61 415.227 74.87L415.407 74V82.97H412.647V64.4H415.047L415.437 67.58L415.137 66.71C415.737 65.95 416.497 65.32 417.417 64.82C418.337 64.32 419.367 64.07 420.507 64.07C421.667 64.07 422.707 64.35 423.627 64.91C424.567 65.47 425.307 66.25 425.847 67.25C426.387 68.25 426.657 69.42 426.657 70.76C426.657 72.1 426.367 73.26 425.787 74.24C425.207 75.22 424.407 75.98 423.387 76.52C422.387 77.04 421.247 77.3 419.967 77.3ZM419.427 75.08C420.227 75.08 420.957 74.9 421.617 74.54C422.297 74.16 422.837 73.65 423.237 73.01C423.637 72.35 423.837 71.61 423.837 70.79C423.837 69.95 423.647 69.21 423.267 68.57C422.887 67.91 422.377 67.39 421.737 67.01C421.117 66.63 420.417 66.44 419.637 66.44C418.917 66.44 418.267 66.58 417.687 66.86C417.107 67.14 416.627 67.53 416.247 68.03C415.867 68.51 415.597 69.07 415.437 69.71V71.78C415.537 72.42 415.777 72.99 416.157 73.49C416.537 73.99 417.007 74.38 417.567 74.66C418.147 74.94 418.767 75.08 419.427 75.08ZM435.59 77.3C434.43 77.3 433.37 77.05 432.41 76.55C431.47 76.05 430.72 75.32 430.16 74.36C429.62 73.38 429.35 72.19 429.35 70.79C429.35 69.41 429.64 68.22 430.22 67.22C430.8 66.2 431.57 65.42 432.53 64.88C433.51 64.34 434.58 64.07 435.74 64.07C436.9 64.07 437.88 64.34 438.68 64.88C439.48 65.4 440.09 66.02 440.51 66.74L440.33 67.22L440.6 64.58H443.18V77H440.39V73.76L440.69 74.48C440.61 74.68 440.43 74.94 440.15 75.26C439.89 75.56 439.53 75.87 439.07 76.19C438.63 76.51 438.12 76.78 437.54 77C436.96 77.2 436.31 77.3 435.59 77.3ZM436.34 74.99C437.04 74.99 437.67 74.86 438.23 74.6C438.79 74.34 439.25 73.98 439.61 73.52C439.99 73.04 440.25 72.47 440.39 71.81V69.38C440.23 68.78 439.95 68.26 439.55 67.82C439.15 67.36 438.67 67.01 438.11 66.77C437.55 66.51 436.93 66.38 436.25 66.38C435.51 66.38 434.83 66.56 434.21 66.92C433.59 67.28 433.09 67.78 432.71 68.42C432.35 69.06 432.17 69.81 432.17 70.67C432.17 71.47 432.36 72.2 432.74 72.86C433.12 73.52 433.63 74.04 434.27 74.42C434.91 74.8 435.6 74.99 436.34 74.99ZM458.088 75.86C457.528 76.3 456.858 76.65 456.078 76.91C455.298 77.17 454.518 77.3 453.738 77.3C452.378 77.3 451.188 77.03 450.168 76.49C449.148 75.95 448.348 75.2 447.768 74.24C447.208 73.26 446.928 72.11 446.928 70.79C446.928 69.47 447.228 68.32 447.828 67.34C448.448 66.36 449.248 65.61 450.228 65.09C451.228 64.55 452.298 64.28 453.438 64.28C454.438 64.28 455.328 64.42 456.108 64.7C456.908 64.98 457.588 65.36 458.148 65.84L456.768 67.64C456.408 67.36 455.968 67.11 455.448 66.89C454.928 66.67 454.338 66.56 453.678 66.56C452.958 66.56 452.288 66.75 451.668 67.13C451.068 67.49 450.588 67.99 450.228 68.63C449.888 69.27 449.718 69.99 449.718 70.79C449.718 71.55 449.898 72.26 450.258 72.92C450.618 73.56 451.118 74.07 451.758 74.45C452.398 74.81 453.128 74.99 453.948 74.99C454.488 74.99 454.978 74.91 455.418 74.75C455.878 74.59 456.288 74.37 456.648 74.09L458.088 75.86ZM467.45 77.3C466.03 77.3 464.81 77.02 463.79 76.46C462.77 75.88 461.98 75.1 461.42 74.12C460.88 73.12 460.61 71.98 460.61 70.7C460.61 69.48 460.92 68.37 461.54 67.37C462.16 66.37 462.99 65.57 464.03 64.97C465.07 64.37 466.23 64.07 467.51 64.07C469.15 64.07 470.51 64.55 471.59 65.51C472.67 66.47 473.4 67.79 473.78 69.47L463.55 73.07L462.89 71.42L471.29 68.36L470.69 68.75C470.45 68.09 470.05 67.52 469.49 67.04C468.93 66.54 468.2 66.29 467.3 66.29C466.54 66.29 465.86 66.48 465.26 66.86C464.66 67.22 464.19 67.72 463.85 68.36C463.51 69 463.34 69.73 463.34 70.55C463.34 71.41 463.52 72.17 463.88 72.83C464.24 73.47 464.73 73.98 465.35 74.36C465.99 74.72 466.71 74.9 467.51 74.9C468.05 74.9 468.57 74.8 469.07 74.6C469.59 74.4 470.07 74.14 470.51 73.82L471.8 75.89C471.18 76.31 470.48 76.65 469.7 76.91C468.94 77.17 468.19 77.3 467.45 77.3ZM484.836 77.3C483.696 77.3 482.686 77.05 481.806 76.55C480.946 76.05 480.256 75.42 479.736 74.66L480.066 73.79V77H477.276V53.78H480.036V67.43L479.946 66.38C480.446 65.7 481.156 65.15 482.076 64.73C483.016 64.29 484.056 64.07 485.196 64.07C486.316 64.07 487.336 64.34 488.256 64.88C489.176 65.42 489.906 66.18 490.446 67.16C491.006 68.12 491.286 69.27 491.286 70.61C491.286 72.01 490.986 73.21 490.386 74.21C489.806 75.21 489.026 75.98 488.046 76.52C487.066 77.04 485.996 77.3 484.836 77.3ZM484.266 74.93C485.066 74.93 485.786 74.74 486.426 74.36C487.066 73.98 487.566 73.47 487.926 72.83C488.286 72.17 488.466 71.42 488.466 70.58C488.466 69.78 488.276 69.06 487.896 68.42C487.536 67.76 487.036 67.24 486.396 66.86C485.776 66.48 485.066 66.29 484.266 66.29C483.586 66.29 482.956 66.42 482.376 66.68C481.796 66.94 481.306 67.3 480.906 67.76C480.506 68.2 480.226 68.72 480.066 69.32V71.81C480.226 72.41 480.496 72.95 480.876 73.43C481.256 73.89 481.736 74.26 482.316 74.54C482.896 74.8 483.546 74.93 484.266 74.93ZM500.219 77.3C499.059 77.3 497.999 77.05 497.039 76.55C496.099 76.05 495.349 75.32 494.789 74.36C494.249 73.38 493.979 72.19 493.979 70.79C493.979 69.41 494.269 68.22 494.849 67.22C495.429 66.2 496.199 65.42 497.159 64.88C498.139 64.34 499.209 64.07 500.369 64.07C501.529 64.07 502.509 64.34 503.309 64.88C504.109 65.4 504.719 66.02 505.139 66.74L504.959 67.22L505.229 64.58H507.809V77H505.019V73.76L505.319 74.48C505.239 74.68 505.059 74.94 504.779 75.26C504.519 75.56 504.159 75.87 503.699 76.19C503.259 76.51 502.749 76.78 502.169 77C501.589 77.2 500.939 77.3 500.219 77.3ZM500.969 74.99C501.669 74.99 502.299 74.86 502.859 74.6C503.419 74.34 503.879 73.98 504.239 73.52C504.619 73.04 504.879 72.47 505.019 71.81V69.38C504.859 68.78 504.579 68.26 504.179 67.82C503.779 67.36 503.299 67.01 502.739 66.77C502.179 66.51 501.559 66.38 500.879 66.38C500.139 66.38 499.459 66.56 498.839 66.92C498.219 67.28 497.719 67.78 497.339 68.42C496.979 69.06 496.799 69.81 496.799 70.67C496.799 71.47 496.989 72.2 497.369 72.86C497.749 73.52 498.259 74.04 498.899 74.42C499.539 74.8 500.229 74.99 500.969 74.99ZM515.127 64.58L515.397 68.18L515.247 67.7C515.567 66.94 516.027 66.3 516.627 65.78C517.247 65.24 517.887 64.83 518.547 64.55C519.227 64.25 519.817 64.1 520.317 64.1L520.167 66.86C519.227 66.8 518.397 66.98 517.677 67.4C516.977 67.82 516.417 68.38 515.997 69.08C515.597 69.78 515.397 70.53 515.397 71.33V77H512.637V64.58H515.127Z" fill="white"/>
</svg>
